<svg
  width="309"
  height="190"
  viewBox="0 0 309 190"
  fill="none"
  xmlns="http://www.w3.org/2000/svg"
>
  <path
    opacity="0.1"
    d="M309 122.038C309.005 127.186 308.382 132.315 307.145 137.312C306.729 138.996 306.245 140.645 305.694 142.259C305.02 144.251 304.239 146.205 303.354 148.113C302.908 149.078 302.437 150.024 301.94 150.95C301.948 156.229 300.861 161.453 298.748 166.291C294.927 174.97 288.113 181.988 279.549 186.066C274.195 188.62 268.343 189.963 262.41 190H58.6629C49.5978 190.019 40.6892 187.638 32.8429 183.1L32.7222 183.031C31.6047 182.377 30.515 181.685 29.4534 180.954C27.0648 179.304 24.8207 177.455 22.7453 175.425C19.9362 172.681 17.4609 169.615 15.3708 166.291C10.4618 158.498 7.86122 149.475 7.87034 140.265C2.89891 131.545 0 121.099 0 109.873C0 95.7107 4.60677 82.7913 12.1754 73.0112C13.7533 70.9679 15.4817 69.0453 17.3462 67.2596C19.1859 65.4924 21.1632 63.8744 23.2595 62.4207C24.9366 61.2563 26.6895 60.2049 28.5064 59.2734C29.2645 58.8879 30.0253 58.5233 30.7993 58.185C31.4787 57.8834 32.1661 57.6027 32.8613 57.3378C33.6955 57.0214 34.5403 56.7302 35.3955 56.4645C36.2508 56.1987 37.0947 55.9662 37.9272 55.7668C39.1514 55.4678 40.3967 55.2248 41.6629 55.0377C42.7123 54.883 43.7617 54.7754 44.8111 54.6941C45.6453 54.6312 46.4875 54.5971 47.3348 54.5866H47.7939C48.7279 54.5866 49.6566 54.6233 50.5774 54.6863C50.6745 54.4922 50.7794 54.2955 50.8765 54.104C51.2438 53.4038 51.6242 52.7061 52.0072 52.0242C52.0063 52.0181 52.0063 52.012 52.0072 52.0059C52.0728 51.8852 52.1384 51.7672 52.2066 51.6518C52.5161 51.0932 52.8388 50.5398 53.1694 49.9916C53.3215 49.7294 53.4711 49.4828 53.6259 49.2363C53.6586 49.175 53.6945 49.1155 53.7334 49.0579C53.8908 48.7957 54.0509 48.5334 54.2135 48.2711C55.0233 46.9773 55.8654 45.7061 56.7399 44.4577L56.9629 44.1377C57.0993 43.9436 57.2252 43.7548 57.3774 43.5607C57.7394 43.0546 58.112 42.5457 58.4871 42.0474C58.7495 41.6907 59.0118 41.3367 59.2951 40.9983C59.9772 40.1241 60.6768 39.2499 61.3939 38.3756C62.111 37.5014 62.856 36.6385 63.6291 35.787C63.734 35.669 63.8389 35.5536 63.9491 35.4382L65.0693 34.216C65.1244 34.1583 65.1716 34.1059 65.2241 34.0534C65.3579 33.9092 65.4865 33.7649 65.6307 33.6259C66.2315 32.9886 66.848 32.3644 67.4672 31.7428C70.618 28.6054 73.9748 25.6815 77.515 22.9908C77.654 22.8806 77.7957 22.7757 77.9347 22.6708C78.6011 22.1699 79.2779 21.6742 79.9548 21.1864C83.6777 18.5163 87.5694 16.0896 91.6055 13.9215C91.8836 13.7615 92.1669 13.612 92.4529 13.4651C96.0713 11.5514 99.7926 9.83874 103.6 8.33509C105.675 7.51418 107.797 6.7431 109.933 6.03759C111.355 5.57075 112.782 5.12751 114.227 4.7105C116.487 4.06007 118.763 3.47695 121.054 2.96115C127.804 1.44702 134.67 0.511685 141.579 0.165337C143.678 0.0586801 145.801 0.00360383 147.947 0.000106877C158.301 -0.0135978 168.616 1.29076 178.641 3.88172C178.745 4.03832 178.886 4.16598 179.053 4.2527C179.22 4.33942 179.405 4.38233 179.593 4.37741H180.475C180.858 4.48232 181.238 4.58723 181.621 4.69738C183.76 5.31285 185.869 5.98514 187.946 6.71425L188.471 6.90309C193.599 8.72612 198.589 10.9174 203.401 13.4599C207.739 15.7462 211.915 18.326 215.902 21.1811C216.516 21.6217 217.121 22.0659 217.717 22.5135C218.441 22.0501 219.178 21.606 219.926 21.1811C222.817 19.5352 225.887 18.2266 229.077 17.2812C235.745 15.3084 242.801 15.0325 249.603 16.4786C258.325 18.3276 266.222 22.9174 272.6 29.4453C275.196 32.1162 277.508 35.0503 279.497 38.1999C279.641 38.4255 279.785 38.6536 279.924 38.8844C281.634 41.6721 283.103 44.6 284.316 47.6364C284.361 47.7492 284.405 47.8541 284.445 47.9643C285.565 50.8076 286.468 53.7315 287.147 56.711C287.178 56.8631 287.215 57.0126 287.246 57.1647C287.881 60.0482 288.313 62.9728 288.537 65.9167C288.537 66.0216 288.537 66.1292 288.558 66.2393C288.668 67.7623 288.724 69.3009 288.726 70.8553C288.726 72.2453 288.679 73.6249 288.592 74.9939C288.592 75.1434 288.571 75.2982 288.558 75.4529C288.534 75.849 288.5 76.2397 288.466 76.6384C290.47 78.2541 292.345 80.0228 294.075 81.9284C294.84 82.7624 295.579 83.6279 296.295 84.5249C298.473 87.2549 300.388 90.1853 302.014 93.2769C306.45 101.649 309 111.497 309 122.038Z"
    fill="#6C63FF"
  />
  <g clip-path="url(#clip0)">
    <path
      d="M125.845 165.839H61.9765C61.9765 165.839 60.6819 146.851 68.3418 146.635C76.0017 146.42 75.1386 155.051 84.7404 143.183C94.3422 131.316 105.994 131.963 107.504 138.976C109.015 145.988 104.591 151.598 112.683 149.872C120.774 148.146 132.426 152.677 125.845 165.839Z"
      fill="#6C63FF"
    />
    <path
      d="M92.8325 165.843L92.6169 165.835C93.1197 153.333 95.7379 145.301 97.8458 140.764C100.134 135.838 102.34 133.844 102.362 133.824L102.505 133.985C102.484 134.005 100.304 135.979 98.0335 140.872C95.9373 145.39 93.3334 153.389 92.8325 165.843Z"
      fill="#F2F2F2"
    />
    <path
      d="M115.948 165.869L115.741 165.809C118.235 157.248 124.109 151.842 124.168 151.789L124.313 151.949C124.254 152.002 118.424 157.369 115.948 165.869Z"
      fill="#F2F2F2"
    />
    <path
      d="M72.036 165.854L71.8223 165.824C72.6685 159.721 71.1399 154.986 69.7085 152.088C68.1587 148.951 66.3903 147.237 66.3726 147.22L66.5219 147.065C66.5399 147.082 68.3356 148.822 69.902 151.993C71.3467 154.917 72.8898 159.696 72.036 165.854Z"
      fill="#F2F2F2"
    />
    <path
      d="M134.513 166.128H55.0877L55.0694 165.859C55.0237 165.189 54.0105 149.402 59.126 143.769C60.2695 142.509 61.647 141.848 63.2202 141.804C66.5546 141.709 68.6501 142.958 70.3402 143.961C73.5258 145.851 75.6302 147.099 83.2818 137.642C91.5709 127.397 100.514 125.193 105.656 126.418C108.978 127.21 111.267 129.449 111.937 132.56C112.572 135.506 112.37 138.274 112.207 140.498C112.034 142.878 111.896 144.757 112.874 145.609C113.69 146.32 115.318 146.385 117.999 145.812C123.45 144.649 131.057 145.645 134.876 150.578C136.93 153.232 138.548 158.057 134.593 165.968L134.513 166.128ZM55.6298 165.55H134.155C137.103 159.57 137.195 154.518 134.419 150.931C130.916 146.406 123.568 145.214 118.119 146.377C115.207 146.998 113.472 146.896 112.495 146.044C111.3 145.003 111.446 142.996 111.632 140.456C111.791 138.269 111.99 135.546 111.373 132.681C110.752 129.796 108.619 127.718 105.522 126.98C100.545 125.792 91.8509 127.969 83.7306 138.005C75.7654 147.85 73.366 146.427 70.0458 144.457C68.3348 143.442 66.3921 142.292 63.2365 142.381C61.8263 142.421 60.5872 143.018 59.5533 144.157C54.9558 149.219 55.5171 163.416 55.6298 165.55Z"
      fill="#CFCCE0"
    />
    <path
      d="M212.994 125.443L189.887 121.426C194.018 112.859 195.905 104.396 194.292 96.0918L217.399 100.11C213.805 108.044 212.29 116.762 212.994 125.443Z"
      fill="#F2F2F2"
    />
    <path
      d="M211.032 103.735L199.062 101.654L198.965 102.21L210.936 104.292L211.032 103.735Z"
      fill="#3F3D56"
    />
    <path
      d="M210.645 105.962L198.674 103.881L198.578 104.437L210.548 106.519L210.645 105.962Z"
      fill="#3F3D56"
    />
    <path
      d="M210.258 108.19L198.287 106.109L198.19 106.665L210.161 108.747L210.258 108.19Z"
      fill="#3F3D56"
    />
    <path
      d="M209.871 110.416L197.9 108.335L197.803 108.892L209.774 110.973L209.871 110.416Z"
      fill="#3F3D56"
    />
    <path
      d="M209.483 112.643L197.513 110.562L197.416 111.119L209.387 113.2L209.483 112.643Z"
      fill="#3F3D56"
    />
    <path
      d="M209.096 114.871L197.125 112.789L197.029 113.346L208.999 115.428L209.096 114.871Z"
      fill="#3F3D56"
    />
    <path
      d="M208.709 117.098L196.738 115.016L196.641 115.573L208.612 117.655L208.709 117.098Z"
      fill="#3F3D56"
    />
    <path
      d="M208.322 119.325L196.351 117.244L196.254 117.8L208.225 119.882L208.322 119.325Z"
      fill="#3F3D56"
    />
    <path
      d="M223.285 133.581L200.178 129.563C204.309 120.997 206.196 112.533 204.583 104.229L227.69 108.247C224.096 116.181 222.581 124.899 223.285 133.581Z"
      fill="#F2F2F2"
    />
    <path
      d="M221.323 111.872L209.353 109.791L209.256 110.347L221.227 112.429L221.323 111.872Z"
      fill="#3F3D56"
    />
    <path
      d="M220.936 114.099L208.965 112.018L208.869 112.575L220.839 114.656L220.936 114.099Z"
      fill="#3F3D56"
    />
    <path
      d="M220.549 116.327L208.578 114.246L208.481 114.803L220.452 116.884L220.549 116.327Z"
      fill="#3F3D56"
    />
    <path
      d="M220.162 118.553L208.191 116.472L208.094 117.029L220.065 119.11L220.162 118.553Z"
      fill="#3F3D56"
    />
    <path
      d="M219.775 120.781L207.804 118.699L207.707 119.256L219.678 121.337L219.775 120.781Z"
      fill="#3F3D56"
    />
    <path
      d="M219.387 123.008L207.416 120.926L207.32 121.483L219.29 123.565L219.387 123.008Z"
      fill="#3F3D56"
    />
    <path
      d="M219 125.235L207.029 123.154L206.932 123.71L218.903 125.792L219 125.235Z"
      fill="#3F3D56"
    />
    <path
      d="M218.613 127.462L206.642 125.381L206.545 125.937L218.516 128.019L218.613 127.462Z"
      fill="#3F3D56"
    />
    <path
      d="M229.584 165.818H188.368L188.36 165.587L186.392 109.303H231.559L229.584 165.818ZM188.83 165.339H229.121L231.064 109.782H186.888L188.83 165.339Z"
      fill="#3F3D56"
    />
    <path
      d="M227.327 162.793H190.625L188.86 112.328H229.091L227.327 162.793Z"
      fill="#3F3D56"
    />
    <g opacity="0.2">
      <path
        opacity="0.2"
        d="M198.2 119.731H195.065V158.525H198.2V119.731Z"
        fill="white"
      />
      <path
        opacity="0.2"
        d="M210.543 119.731H207.408V158.525H210.543V119.731Z"
        fill="white"
      />
      <path
        opacity="0.2"
        d="M222.887 119.731H219.752V158.525H222.887V119.731Z"
        fill="white"
      />
    </g>
    <path
      d="M209.675 87.369L205.487 93.9934L256.494 126.241L260.682 119.616L209.675 87.369Z"
      fill="#3F3D56"
    />
    <path
      d="M240.365 95.2893C238.876 94.3475 237.149 93.8524 235.388 93.8627C233.627 93.873 231.906 94.3884 230.429 95.3475C228.952 96.3067 227.781 97.6695 227.056 99.2741C226.33 100.879 226.08 102.658 226.335 104.4L228.775 105.943C228.162 104.519 228.021 102.935 228.372 101.425C228.724 99.9139 229.55 98.5556 230.729 97.5483C231.908 96.5411 233.379 95.9379 234.926 95.827C236.473 95.7161 238.015 96.1035 239.326 96.9322C240.637 97.761 241.648 98.9877 242.211 100.433C242.775 101.878 242.861 103.465 242.457 104.963C242.052 106.46 241.18 107.789 239.966 108.754C238.752 109.72 237.261 110.271 235.711 110.328L238.151 111.87C239.835 111.354 241.335 110.365 242.473 109.021C243.611 107.677 244.34 106.035 244.573 104.289C244.806 102.544 244.534 100.768 243.788 99.1727C243.042 97.5774 241.854 96.2296 240.365 95.2893V95.2893Z"
      fill="#3F3D56"
    />
    <path
      d="M270.016 165.488H52.4686V165.966H270.016V165.488Z"
      fill="#3F3D56"
    />
    <path
      d="M167.345 84.1167C167.345 84.1167 176.679 91.0571 172.85 92.2538C169.02 93.4504 164.234 88.1852 164.473 86.7493C164.712 85.3133 167.345 84.1167 167.345 84.1167Z"
      fill="#FFB8B8"
    />
    <path
      d="M159.208 75.2617L168.781 84.1168L164.952 88.1853L158.49 83.3988L159.208 75.2617Z"
      fill="#575A89"
    />
    <path
      d="M180.63 111.625L160.893 98.955C168.024 92.6628 173.048 85.5947 174.784 77.3159L194.52 89.9856C188.129 95.9035 183.349 103.35 180.63 111.625Z"
      fill="#6C63FF"
    />
    <path
      d="M187.246 90.8563L177.021 84.2925L176.716 84.7681L186.941 91.3319L187.246 90.8563Z"
      fill="#3F3D56"
    />
    <path
      d="M186.025 92.7587L175.8 86.1948L175.494 86.6704L185.719 93.2342L186.025 92.7587Z"
      fill="#3F3D56"
    />
    <path
      d="M184.804 94.661L174.578 88.0972L174.273 88.5728L184.498 95.1366L184.804 94.661Z"
      fill="#3F3D56"
    />
    <path
      d="M183.582 96.5633L173.357 89.9995L173.052 90.4751L183.277 97.0389L183.582 96.5633Z"
      fill="#3F3D56"
    />
    <path
      d="M182.361 98.4657L172.136 91.9019L171.831 92.3774L182.056 98.9413L182.361 98.4657Z"
      fill="#3F3D56"
    />
    <path
      d="M181.14 100.368L170.915 93.8042L170.61 94.2798L180.835 100.844L181.14 100.368Z"
      fill="#3F3D56"
    />
    <path
      d="M179.919 102.27L169.694 95.7065L169.388 96.1821L179.614 102.746L179.919 102.27Z"
      fill="#3F3D56"
    />
    <path
      d="M178.698 104.173L168.473 97.6089L168.167 98.0845L178.392 104.648L178.698 104.173Z"
      fill="#3F3D56"
    />
    <path
      d="M125.024 142.013L121.391 149.656L131.553 152.087L131.27 144.72L125.024 142.013Z"
      fill="#FFB8B8"
    />
    <path
      d="M161.362 152.325L162.559 160.701L172.371 157.111L168.063 151.128L161.362 152.325Z"
      fill="#FFB8B8"
    />
    <path
      d="M139.629 73.4441C139.629 73.4441 138.125 83.0724 138.535 87.6514C138.944 92.2305 137.33 111.55 137.33 111.55C137.33 111.55 130.114 119.4 128.476 128.365C127.399 134.013 125.675 139.519 123.338 144.772L131.841 147.54L148.691 115.638C148.691 115.638 160.775 89.1914 159.574 86.672C158.373 84.1525 156.49 74.0013 156.49 74.0013L139.629 73.4441Z"
      fill="#2F2E41"
    />
    <path
      d="M123.577 147.659C123.577 147.659 123.567 143.345 122.044 145.207C120.522 147.069 115.552 150.665 118.479 153.18C121.406 155.696 138.497 169.329 139.417 165.344C139.928 163.132 131.403 148.199 131.403 148.199C131.403 148.199 128.557 148.377 128.36 149.108C128.162 149.839 123.577 147.659 123.577 147.659Z"
      fill="#2F2E41"
    />
    <path
      d="M153.943 34.3369L147.481 41.756L153.943 48.4571L159.926 39.3628L153.943 34.3369Z"
      fill="#FFB8B8"
    />
    <path
      d="M164.952 34.8156C164.952 36.4769 164.314 38.0746 163.168 39.2775C162.022 40.4803 160.457 41.1958 158.797 41.2755C157.138 41.3552 155.512 40.7931 154.256 39.7057C153 38.6183 152.211 37.0891 152.052 35.4354C151.894 33.7817 152.378 32.1305 153.404 30.8242C154.431 29.518 155.92 28.657 157.565 28.4199C159.209 28.1829 160.881 28.5879 162.235 29.5511C163.589 30.5142 164.519 31.9615 164.834 33.5926C164.912 33.9956 164.952 34.4051 164.952 34.8156Z"
      fill="#FFB8B8"
    />
    <path
      d="M154.234 29.9236C156.476 28.8814 159.119 29.0145 161.484 29.7357C162.826 30.1449 164.151 30.7616 165.09 31.8037C166.029 32.8458 166.512 34.3809 166.024 35.696L164.068 34.2169L163.889 35.5206C162.598 33.5068 160.146 32.6318 157.872 31.8897C157.161 31.6577 156.217 31.4992 155.807 32.1249C155.634 32.3886 155.614 32.7328 155.43 32.9889C155.086 33.469 154.365 33.4267 153.838 33.6929C153.344 33.9423 153.045 34.4513 152.779 34.9363C152.512 35.4213 152.63 36.1004 152.148 36.3714C150.213 37.458 151.354 33.2734 151.669 32.5422C152.292 31.098 152.811 30.5845 154.234 29.9236Z"
      fill="#2F2E41"
    />
    <path
      d="M135.634 87.1082C135.634 87.1082 139.703 95.9633 142.575 99.5532C145.447 103.143 154.78 120.135 154.78 120.135C154.78 120.135 153.105 130.666 156.695 139.042C158.92 144.344 160.526 149.885 161.482 155.555L170.097 153.162L166.507 117.263C166.507 117.263 161.96 88.5442 159.567 87.1082C157.174 85.6723 149.994 78.2532 149.994 78.2532L135.634 87.1082Z"
      fill="#2F2E41"
    />
    <path
      d="M155.618 47.9786C155.618 47.9786 151.55 37.209 146.045 40.5595C140.541 43.9101 136.233 73.8258 136.233 73.8258C136.233 73.8258 131.207 87.4674 136.233 88.9033C141.259 90.3393 145.327 92.2539 146.045 89.6213C146.763 86.9887 146.284 82.4415 147.481 84.8348C148.678 87.2281 148.199 90.1 150.592 90.1C152.985 90.1 162.319 88.9033 162.08 87.2281C161.841 85.5528 155.618 47.9786 155.618 47.9786Z"
      fill="#575A89"
    />
    <path
      d="M135.754 90.3393C135.754 90.3393 132.643 99.673 136.951 99.673C141.259 99.673 140.636 90.2498 140.636 90.2498L135.754 90.3393Z"
      fill="#FFB8B8"
    />
    <path
      d="M163.277 157.829C163.277 157.829 160.883 154.239 160.644 156.632C160.405 159.026 158.251 164.77 162.08 165.248C165.909 165.727 187.688 167.642 186.252 163.812C185.455 161.686 170.097 153.953 170.097 153.953C170.097 153.953 167.824 155.675 168.063 156.393C168.302 157.111 163.277 157.829 163.277 157.829Z"
      fill="#2F2E41"
    />
    <path
      d="M169.14 36.3713C169.14 36.3713 168.006 37.3453 166.534 35.4187C166.148 34.8945 165.819 34.3314 165.55 33.7387C164.366 32.5616 162.777 31.8796 161.108 31.8312C160.996 31.8265 160.881 31.8241 160.764 31.8241C157.652 31.8241 156.934 29.6701 156.934 29.6701L151.909 31.3454C151.909 31.3454 152.626 24.6443 159.567 24.6443C166.507 24.6443 166.747 30.3881 166.747 30.3881C166.747 30.3881 172.251 32.542 169.14 36.3713Z"
      fill="#575A89"
    />
    <path
      opacity="0.2"
      d="M166.534 35.4187C166.148 34.8945 165.819 34.3314 165.55 33.7387C164.366 32.5616 162.777 31.8796 161.108 31.8312C162.858 31.2832 165.9 30.6466 167.225 32.3027C168.446 33.8272 167.431 34.8659 166.534 35.4187Z"
      fill="black"
    />
    <path
      d="M146.284 42.4741C146.284 42.4741 139.823 41.2775 138.147 47.0213C136.472 52.7651 132.882 69.7573 132.882 69.7573L135.036 87.2281L134.797 91.5359H141.737V86.9887C141.737 86.5101 142.694 67.8427 142.694 67.8427L150.592 49.8932C150.592 49.8932 152.267 44.1494 146.284 42.4741Z"
      fill="#575A89"
    />
    <path
      opacity="0.2"
      d="M150.712 52.406L142.814 67.9622L141.845 90.2497L144.489 67.7229L150.712 52.406Z"
      fill="black"
    />
    <path
      opacity="0.2"
      d="M160.291 76.2634L162.084 85.4555L161.188 77.0929L160.291 76.2634Z"
      fill="black"
    />
    <path
      opacity="0.2"
      d="M139.942 97.7583L150.233 112.357L149.156 114.511L139.942 97.7583Z"
      fill="black"
    />
  </g>
  <defs>
    <clipPath id="clip0">
      <rect
        x="52.4686"
        y="24.6443"
        width="217.547"
        height="141.506"
        fill="white"
      />
    </clipPath>
  </defs>
</svg>
