<svg width="303" height="186" viewBox="0 0 303 186" fill="none" xmlns="http://www.w3.org/2000/svg">
<path opacity="0.1" d="M303 119.468C303.005 124.508 302.394 129.529 301.181 134.421C300.773 136.07 300.299 137.684 299.759 139.264C299.098 141.214 298.332 143.127 297.464 144.994C297.027 145.939 296.564 146.865 296.077 147.772C296.085 152.94 295.019 158.054 292.947 162.79C289.2 171.287 282.519 178.157 274.121 182.149C268.87 184.649 263.132 185.964 257.315 186H57.5238C48.6347 186.019 39.8991 183.688 32.2052 179.245L32.0869 179.178C30.991 178.538 29.9225 177.86 28.8815 177.145C26.5393 175.53 24.3387 173.719 22.3036 171.732C19.5491 169.046 17.1219 166.044 15.0723 162.79C10.2586 155.161 7.70857 146.328 7.71752 137.312C2.84262 128.776 0 118.549 0 107.56C0 93.6958 4.51732 81.0483 11.939 71.4741C13.4863 69.4739 15.1811 67.5918 17.0094 65.8436C18.8133 64.1136 20.7523 62.5296 22.8078 61.1065C24.4524 59.9667 26.1712 58.9375 27.9528 58.0256C28.6963 57.6481 29.4423 57.2912 30.2012 56.96C30.8675 56.6648 31.5415 56.3901 32.2232 56.1307C33.0413 55.8209 33.8696 55.5359 34.7082 55.2758C35.5469 55.0156 36.3744 54.7879 37.1907 54.5928C38.3912 54.3001 39.6123 54.0622 40.854 53.879C41.883 53.7276 42.912 53.6223 43.941 53.5427C44.759 53.4811 45.5848 53.4477 46.4157 53.4374H46.8659C47.7817 53.4374 48.6924 53.4734 49.5953 53.535C49.6905 53.345 49.7934 53.1524 49.8886 52.965C50.2487 52.2795 50.6218 51.5965 50.9973 50.929C50.9965 50.923 50.9965 50.917 50.9973 50.911C51.0617 50.7929 51.126 50.6774 51.1929 50.5644C51.4964 50.0175 51.8128 49.4758 52.137 48.9392C52.2862 48.6824 52.4328 48.4411 52.5846 48.1997C52.6167 48.1398 52.6519 48.0815 52.6901 48.0251C52.8444 47.7684 53.0013 47.5116 53.1608 47.2549C53.9549 45.9883 54.7806 44.7439 55.6381 43.5218L55.8568 43.2085C55.9906 43.0185 56.1141 42.8337 56.2633 42.6437C56.6183 42.1481 56.9836 41.65 57.3514 41.1622C57.6087 40.813 57.8659 40.4664 58.1438 40.1352C58.8126 39.2794 59.4986 38.4236 60.2018 37.5677C60.9049 36.7119 61.6355 35.8672 62.3935 35.0336C62.4964 34.9181 62.5993 34.8051 62.7074 34.6921L63.8058 33.4957C63.8599 33.4392 63.9062 33.3878 63.9576 33.3365C64.0888 33.1953 64.2149 33.0541 64.3564 32.918C64.9455 32.2941 65.55 31.683 66.1571 31.0745C69.2468 28.0031 72.5384 25.1409 76.0098 22.5068C76.1462 22.399 76.2851 22.2963 76.4214 22.1936C77.0748 21.7032 77.7385 21.2179 78.4022 20.7403C82.0529 18.1265 85.869 15.7509 89.8267 13.6284C90.0994 13.4718 90.3773 13.3254 90.6577 13.1816C94.2058 11.3082 97.8549 9.63161 101.588 8.15961C103.623 7.35598 105.704 6.60114 107.798 5.91048C109.193 5.45347 110.592 5.01956 112.009 4.61133C114.225 3.97459 116.456 3.40375 118.703 2.89881C125.322 1.41655 132.055 0.500912 138.83 0.161856C140.888 0.0574447 142.97 0.00352796 145.074 0.000104627C155.228 -0.0133116 165.342 1.26359 175.172 3.8C175.274 3.9533 175.413 4.07828 175.576 4.16317C175.74 4.24806 175.922 4.29007 176.106 4.28526H176.97C177.346 4.38796 177.719 4.49066 178.095 4.59849C180.192 5.201 182.259 5.85913 184.297 6.5729L184.811 6.75776C189.84 8.54241 194.733 10.6876 199.451 13.1765C203.705 15.4147 207.801 17.9402 211.709 20.7352C212.311 21.1666 212.905 21.6013 213.49 22.0395C214.2 21.5859 214.922 21.1511 215.656 20.7352C218.49 19.1239 221.501 17.8429 224.629 16.9173C231.167 14.9861 238.086 14.7161 244.756 16.1317C253.309 17.9418 261.053 22.4349 267.306 28.8254C269.853 31.4401 272.119 34.3124 274.07 37.3957C274.211 37.6165 274.353 37.8399 274.489 38.0658C276.165 40.7948 277.606 43.661 278.795 46.6336C278.839 46.744 278.883 46.8467 278.921 46.9545C280.02 49.738 280.905 52.6003 281.571 55.5171C281.602 55.666 281.638 55.8124 281.669 55.9613C282.291 58.784 282.714 61.647 282.934 64.529C282.934 64.6317 282.934 64.737 282.955 64.8448C283.063 66.3357 283.118 67.8419 283.12 69.3636C283.12 70.7244 283.073 72.0749 282.988 73.4151C282.988 73.5615 282.968 73.713 282.955 73.8644C282.932 74.2521 282.898 74.6347 282.865 75.0249C284.83 76.6067 286.669 78.3381 288.365 80.2036C289.114 81.0201 289.84 81.8673 290.541 82.7454C292.678 85.418 294.556 88.2867 296.149 91.3132C300.499 99.5086 303 109.15 303 119.468Z" fill="#6C63FF"/>
<path d="M65.4461 153L65 152.9C69.9736 130.848 82.4727 110.823 100.195 96.5132C113.593 85.7115 129.529 78.4872 146.5 75.5207C163.472 72.5541 180.922 73.9429 197.207 79.5562C213.492 85.1694 228.076 94.8226 239.587 107.607C251.097 120.391 259.154 135.885 263 152.631L262.554 152.732C252.026 106.643 211.512 74.4545 164.031 74.4545C117.172 74.4545 75.7109 107.488 65.4461 153Z" fill="#3F3D56"/>
<path d="M104 73H102V154H104V73Z" fill="#3F3D56"/>
<path d="M122.999 83.4091C123.13 111.299 103.236 134 103.236 134C103.236 134 83.131 111.481 83.0006 83.5909C82.8703 55.7005 102.764 33 102.764 33C102.764 33 122.869 55.5187 122.999 83.4091Z" fill="#6C63FF"/>
<path d="M246 120H88V154H246V120Z" fill="#F2F2F2"/>
<path d="M83 124L100.158 88H237.189L250 124H83Z" fill="#3F3D56"/>
<path d="M189 90H126V111H189V90Z" fill="#F2F2F2"/>
<path d="M130 73L120 94H195L189.091 73H130Z" fill="#3F3D56"/>
<path d="M182 127H131V154H182V127Z" fill="#CCCCCC"/>
<path d="M121 128H94V154H121V128Z" fill="#CCCCCC"/>
<path d="M204 129H190V154H204V129Z" fill="#3F3D56"/>
<path d="M79 101H78V154H79V101Z" fill="#3F3D56"/>
<path d="M90.9996 107.44C91.0843 125.941 78.1534 141 78.1534 141C78.1534 141 65.0851 126.062 65.0004 107.56C64.9157 89.0588 77.8466 74 77.8466 74C77.8466 74 90.9149 88.9382 90.9996 107.44Z" fill="#6C63FF"/>
<path opacity="0.1" d="M90.9996 107.44C91.0843 125.941 78.1534 141 78.1534 141C78.1534 141 65.0851 126.062 65.0004 107.56C64.9157 89.0588 77.8466 74 77.8466 74C77.8466 74 90.9149 88.9382 90.9996 107.44Z" fill="black"/>
<path d="M62 101H60V154H62V101Z" fill="#3F3D56"/>
<path d="M73.9996 107.44C74.0843 125.941 61.1534 141 61.1534 141C61.1534 141 48.0851 126.062 48.0004 107.56C47.9157 89.0588 60.8466 74 60.8466 74C60.8466 74 73.9149 88.9382 73.9996 107.44Z" fill="#6C63FF"/>
<path d="M226 131H219V137H226V131Z" fill="#3F3D56"/>
<path d="M235 131H228V137H235V131Z" fill="#3F3D56"/>
<path d="M226 139H219V146H226V139Z" fill="#3F3D56"/>
<path d="M235 139H228V146H235V139Z" fill="#3F3D56"/>
<path d="M137 96H132V101H137V96Z" fill="#3F3D56"/>
<path d="M144 96H139V101H144V96Z" fill="#3F3D56"/>
<path d="M137 103H132V108H137V103Z" fill="#3F3D56"/>
<path d="M144 103H139V108H144V103Z" fill="#3F3D56"/>
<path d="M177 96H171V101H177V96Z" fill="#3F3D56"/>
<path d="M184 96H178V101H184V96Z" fill="#3F3D56"/>
<path d="M177 103H171V108H177V103Z" fill="#3F3D56"/>
<path d="M184 103H178V108H184V103Z" fill="#3F3D56"/>
<path d="M157 96H152V101H157V96Z" fill="#3F3D56"/>
<path d="M164 96H159V101H164V96Z" fill="#3F3D56"/>
<path d="M157 103H152V108H157V103Z" fill="#3F3D56"/>
<path d="M164 103H159V108H164V103Z" fill="#3F3D56"/>
<path d="M197 132H193V135H197V132Z" fill="#F2F2F2"/>
<path d="M201 132H198V135H201V132Z" fill="#F2F2F2"/>
<path d="M197 136H193V139H197V136Z" fill="#F2F2F2"/>
<path d="M201 136H198V139H201V136Z" fill="#F2F2F2"/>
<path d="M202 144C202.552 144 203 143.552 203 143C203 142.448 202.552 142 202 142C201.448 142 201 142.448 201 143C201 143.552 201.448 144 202 144Z" fill="#F2F2F2"/>
<path d="M182 138H131V139H182V138Z" fill="#F2F2F2"/>
<path d="M182 140H131V141H182V140Z" fill="#F2F2F2"/>
<path d="M182 142H131V143H182V142Z" fill="#F2F2F2"/>
<path d="M182 144H131V145H182V144Z" fill="#F2F2F2"/>
<path d="M182 146H131V147H182V146Z" fill="#F2F2F2"/>
<path d="M182 148H131V149H182V148Z" fill="#F2F2F2"/>
<path d="M182 150H131V151H182V150Z" fill="#F2F2F2"/>
<path d="M121 138H94V139H121V138Z" fill="#F2F2F2"/>
<path d="M121 140H94V141H121V140Z" fill="#F2F2F2"/>
<path d="M121 142H94V143H121V142Z" fill="#F2F2F2"/>
<path d="M121 144H94V145H121V144Z" fill="#F2F2F2"/>
<path d="M121 146H94V147H121V146Z" fill="#F2F2F2"/>
<path d="M121 148H94V149H121V148Z" fill="#F2F2F2"/>
<path d="M121 150H94V151H121V150Z" fill="#F2F2F2"/>
<path d="M237.5 107C247.717 107 256 98.4934 256 88C256 77.5066 247.717 69 237.5 69C227.283 69 219 77.5066 219 88C219 98.4934 227.283 107 237.5 107Z" fill="#6C63FF"/>
<path d="M249 86.1176H238.882V76H235.118V86.1176H225V89.8824H235.118V100H238.882V89.8824H249V86.1176Z" fill="white"/>
</svg>
