<svg width="389" height="239" viewBox="0 0 389 239" fill="none" xmlns="http://www.w3.org/2000/svg">
<g clip-path="url(#clip0)">
<path opacity="0.3" d="M107.253 196.497C140.923 196.497 168.218 169.209 168.218 135.546C168.218 101.884 140.923 74.5955 107.253 74.5955C73.5835 74.5955 46.2886 101.884 46.2886 135.546C46.2886 169.209 73.5835 196.497 107.253 196.497Z" stroke="#FF9800" stroke-width="4" stroke-miterlimit="10" stroke-dasharray="12 12"/>
<path opacity="0.3" d="M268.04 184.441C301.71 184.441 329.005 157.152 329.005 123.49C329.005 89.8277 301.71 62.5391 268.04 62.5391C234.37 62.5391 207.075 89.8277 207.075 123.49C207.075 157.152 234.37 184.441 268.04 184.441Z" stroke="#FF9800" stroke-width="4" stroke-miterlimit="10" stroke-dasharray="12 12"/>
<path d="M291.609 147.043C288.982 144.251 287.519 140.564 287.515 136.732C287.53 134.088 288.23 131.493 289.546 129.2C290.862 126.907 292.75 124.994 295.025 123.647C294.007 122.17 293.461 120.418 293.458 118.624C293.458 113.57 297.698 109.475 302.931 109.475C304.951 109.454 306.926 110.083 308.562 111.269C310.198 112.455 311.41 114.135 312.018 116.062C313.31 114.03 315.096 112.36 317.21 111.208C319.324 110.056 321.696 109.459 324.104 109.475C331.899 109.475 338.22 115.58 338.22 123.108C338.221 124.716 337.928 126.311 337.356 127.813C337.64 127.793 337.928 127.77 338.22 127.77C344.477 127.77 349.549 132.669 349.549 138.714C349.549 139.083 349.53 139.452 349.492 139.819C354.496 141.902 358 146.708 358 152.304C358 159.809 351.703 165.894 343.931 165.894C343.115 165.893 342.3 165.824 341.496 165.687C341.536 166.139 341.563 166.598 341.563 167.06C341.563 175.482 334.495 182.311 325.776 182.311C322.575 182.32 319.445 181.375 316.785 179.595C314.633 181.359 311.934 182.319 309.151 182.311C302.636 182.311 297.357 177.21 297.357 170.924C297.357 170.653 297.38 170.385 297.4 170.117H297.357C290.383 170.117 284.728 164.655 284.728 157.917C284.743 155.643 285.395 153.418 286.611 151.495C287.828 149.573 289.559 148.031 291.609 147.043Z" fill="url(#paint0_linear)"/>
<path d="M292.885 146.993C290.373 144.32 288.973 140.791 288.969 137.124C288.983 134.593 289.653 132.109 290.913 129.914C292.172 127.719 293.979 125.888 296.158 124.599C295.181 123.181 294.658 121.501 294.657 119.779C294.657 114.944 298.717 111.022 303.725 111.022C305.66 111.003 307.55 111.605 309.118 112.739C310.685 113.873 311.848 115.481 312.434 117.325C313.669 115.384 315.376 113.789 317.395 112.687C319.414 111.586 321.68 111.014 323.98 111.025C331.443 111.025 337.49 116.869 337.49 124.086C337.491 125.625 337.21 127.152 336.662 128.591C336.937 128.57 337.212 128.55 337.49 128.55C343.479 128.55 348.333 133.239 348.333 139.026C348.332 139.379 348.313 139.733 348.276 140.084C353.066 142.093 356.419 146.678 356.419 152.033C356.419 159.217 350.389 165.04 342.953 165.04C342.167 165.041 341.383 164.974 340.608 164.843C340.649 165.275 340.672 165.714 340.672 166.156C340.672 174.217 333.906 180.75 325.561 180.75C322.498 180.759 319.502 179.854 316.956 178.152C314.904 179.836 312.332 180.757 309.677 180.757C303.443 180.757 298.388 175.874 298.388 169.853C298.388 169.592 298.409 169.337 298.429 169.079H298.388C291.712 169.079 286.299 163.852 286.299 157.402C286.313 155.224 286.938 153.095 288.102 151.255C289.266 149.415 290.923 147.938 292.885 146.993Z" fill="#009688"/>
<path d="M320.631 131.725H316.212V212.847H320.631V131.725Z" fill="url(#paint1_linear)"/>
<path d="M319.719 131.725H317.274V212.847H319.719V131.725Z" fill="#795548"/>
<path d="M305.129 140.391L303.383 142.103L317.872 156.88L319.619 155.168L305.129 140.391Z" fill="#795548"/>
<path d="M333.062 157.175L318.042 167.713L319.447 169.714L334.467 159.176L333.062 157.175Z" fill="#795548"/>
<path d="M320.781 148.466C322.288 146.744 323.407 144.718 324.063 142.525C324.718 140.333 324.896 138.026 324.583 135.759C324.27 133.492 323.475 131.319 322.249 129.386C321.024 127.453 319.399 125.806 317.482 124.555C318.473 123.021 318.999 121.234 318.996 119.408C318.996 114.244 314.903 110.057 309.851 110.057C307.855 110.072 305.918 110.737 304.334 111.952C302.75 113.167 301.606 114.865 301.075 116.789C299.885 114.748 298.183 113.053 296.136 111.873C294.09 110.692 291.77 110.066 289.408 110.057C281.881 110.057 275.778 116.296 275.778 123.992C275.776 125.632 276.058 127.259 276.612 128.801C276.337 128.781 276.059 128.758 275.778 128.758C269.748 128.758 264.838 133.781 264.838 139.943C264.838 140.325 264.858 140.7 264.895 141.072C262.436 142.174 260.35 143.967 258.891 146.232C257.432 148.497 256.663 151.137 256.678 153.831C256.678 161.504 262.761 167.723 270.261 167.723C271.047 167.722 271.832 167.651 272.606 167.512C272.565 167.974 272.542 168.443 272.542 168.915C272.542 177.522 279.365 184.501 287.787 184.501C290.898 184.502 293.933 183.532 296.466 181.725C298.504 183.513 301.123 184.499 303.835 184.501C310.126 184.501 315.224 179.287 315.224 172.857C315.224 172.579 315.201 172.304 315.184 172.03H315.224C321.96 172.03 327.417 166.447 327.417 159.562C327.428 157.283 326.815 155.045 325.645 153.09C324.476 151.134 322.794 149.535 320.781 148.466Z" fill="url(#paint2_linear)"/>
<path d="M319.019 148.393C320.432 146.776 321.481 144.874 322.096 142.817C322.711 140.76 322.878 138.595 322.584 136.468C322.29 134.341 321.543 132.302 320.394 130.488C319.244 128.675 317.719 127.129 315.921 125.955C316.851 124.515 317.344 122.836 317.341 121.122C317.341 116.273 313.499 112.345 308.756 112.345C306.885 112.361 305.07 112.987 303.587 114.127C302.103 115.266 301.031 116.858 300.532 118.661C299.416 116.745 297.817 115.153 295.896 114.045C293.975 112.936 291.797 112.349 289.579 112.341C282.514 112.341 276.786 118.199 276.786 125.422C276.785 126.961 277.05 128.488 277.57 129.937C277.312 129.917 277.051 129.896 276.786 129.896C271.115 129.896 266.519 134.585 266.519 140.395C266.519 140.754 266.536 141.105 266.573 141.454C264.267 142.491 262.311 144.175 260.944 146.301C259.576 148.427 258.855 150.905 258.868 153.433C258.868 160.633 264.563 166.47 271.621 166.47C272.361 166.47 273.1 166.404 273.828 166.273C273.791 166.708 273.768 167.147 273.768 167.589C273.768 175.67 280.173 182.217 288.075 182.217C290.995 182.218 293.843 181.307 296.221 179.612C298.135 181.29 300.593 182.215 303.138 182.217C309.041 182.217 313.827 177.324 313.827 171.286C313.827 171.025 313.807 170.767 313.79 170.509H313.827C320.148 170.509 325.273 165.268 325.273 158.805C325.281 156.664 324.703 154.561 323.6 152.726C322.498 150.89 320.913 149.392 319.019 148.393Z" fill="#00897B"/>
<path d="M296.449 131.695H293.126V214.34H296.449V131.695Z" fill="url(#paint3_linear)"/>
<path d="M295.742 132.857H294.071V214.34H295.742V132.857Z" fill="#795548"/>
<path d="M307.633 142.041L293.913 156.854L295.14 157.989L308.859 143.177L307.633 142.041Z" fill="#795548"/>
<path d="M280.81 158.945L279.814 160.286L294.037 170.847L295.034 169.505L280.81 158.945Z" fill="#795548"/>
<path d="M256.755 172.633C254.965 170.728 253.969 168.213 253.968 165.6C253.978 163.798 254.455 162.031 255.352 160.468C256.249 158.906 257.536 157.603 259.086 156.685C258.391 155.675 258.018 154.478 258.018 153.252C258.018 149.809 260.908 147.016 264.472 147.016C265.849 147.003 267.195 147.431 268.31 148.239C269.425 149.047 270.251 150.191 270.666 151.504C271.547 150.12 272.764 148.982 274.205 148.197C275.646 147.412 277.262 147.006 278.903 147.016C284.216 147.016 288.523 151.176 288.523 156.306C288.524 157.403 288.324 158.49 287.934 159.515C288.128 159.515 288.323 159.485 288.523 159.485C292.788 159.485 296.228 162.834 296.228 166.943C296.227 167.194 296.214 167.446 296.188 167.696C297.888 168.382 299.347 169.556 300.379 171.071C301.411 172.586 301.97 174.373 301.986 176.206C301.986 181.32 297.695 185.466 292.399 185.466C291.838 185.466 291.278 185.419 290.724 185.325C290.754 185.633 290.771 185.945 290.771 186.259C290.771 191.999 285.954 196.641 280.012 196.641C277.843 196.651 275.721 196.018 273.912 194.823C272.443 196.019 270.604 196.668 268.71 196.658C264.272 196.658 260.671 193.182 260.671 188.895C260.671 188.707 260.671 188.527 260.701 188.346H260.671C255.917 188.346 252.065 184.625 252.065 180.034C252.077 178.485 252.522 176.971 253.351 175.663C254.18 174.355 255.359 173.305 256.755 172.633Z" fill="url(#paint4_linear)"/>
<path d="M257.622 172.599C255.907 170.78 254.948 168.375 254.943 165.874C254.953 164.15 255.409 162.458 256.268 160.962C257.127 159.467 258.359 158.219 259.843 157.341C259.178 156.375 258.821 155.229 258.822 154.056C258.822 150.761 261.588 148.088 264.998 148.088C266.317 148.074 267.605 148.485 268.672 149.258C269.74 150.032 270.53 151.128 270.927 152.385C271.77 151.06 272.935 149.971 274.314 149.219C275.692 148.468 277.239 148.079 278.809 148.088C283.894 148.088 288.018 152.07 288.018 156.983C288.019 158.032 287.828 159.073 287.455 160.054C287.643 160.054 287.827 160.027 288.018 160.027C292.098 160.027 295.407 163.222 295.407 167.164C295.407 167.404 295.395 167.645 295.37 167.884C296.998 168.54 298.394 169.664 299.382 171.114C300.37 172.564 300.906 174.274 300.921 176.028C300.921 180.925 296.811 184.893 291.743 184.893C291.211 184.893 290.679 184.848 290.155 184.759C290.182 185.054 290.198 185.352 290.198 185.653C290.198 191.146 285.589 195.6 279.901 195.6C277.815 195.605 275.774 194.988 274.039 193.828C272.636 194.978 270.876 195.605 269.062 195.6C264.814 195.6 261.357 192.274 261.357 188.168C261.357 187.991 261.357 187.817 261.384 187.643H261.357C256.808 187.643 253.12 184.079 253.12 179.686C253.132 178.202 253.561 176.751 254.356 175.498C255.152 174.245 256.284 173.241 257.622 172.599Z" fill="#009688"/>
<path d="M276.531 162.194H273.52V217.475H276.531V162.194Z" fill="url(#paint5_linear)"/>
<path d="M275.908 162.194H274.244V217.475H275.908V162.194Z" fill="#795548"/>
<path d="M265.965 168.097L264.776 169.262L274.648 179.331L275.837 178.166L265.965 168.097Z" fill="#795548"/>
<path d="M285.005 179.533L274.769 186.715L275.726 188.077L285.961 180.896L285.005 179.533Z" fill="#795548"/>
<path d="M285.083 174.273C286.097 173.118 286.849 171.759 287.291 170.287C287.732 168.815 287.852 167.266 287.642 165.744C287.432 164.222 286.897 162.763 286.074 161.465C285.25 160.168 284.157 159.063 282.869 158.225C283.53 157.194 283.879 155.994 283.874 154.769C283.91 153.274 283.397 151.818 282.433 150.675C281.468 149.532 280.118 148.781 278.638 148.565C277.158 148.349 275.65 148.681 274.399 149.5C273.147 150.32 272.239 151.568 271.845 153.011C271.047 151.642 269.905 150.505 268.533 149.713C267.161 148.921 265.605 148.5 264.02 148.493C258.969 148.493 254.872 152.679 254.872 157.847C254.871 158.947 255.06 160.039 255.432 161.075C255.247 161.075 255.06 161.045 254.872 161.045C253.897 161.056 252.933 161.259 252.037 161.642C251.14 162.025 250.327 162.581 249.645 163.279C248.964 163.976 248.426 164.801 248.063 165.706C247.7 166.611 247.519 167.578 247.53 168.553C247.53 168.808 247.53 169.062 247.566 169.31C245.916 170.05 244.516 171.254 243.537 172.775C242.558 174.296 242.042 176.068 242.053 177.877C242.053 183.024 246.136 187.2 251.171 187.2C251.7 187.2 252.228 187.153 252.748 187.06C252.722 187.371 252.705 187.683 252.705 188.001C252.705 193.778 257.287 198.463 262.935 198.463C265.023 198.464 267.06 197.813 268.76 196.601C270.129 197.8 271.887 198.462 273.708 198.463C274.723 198.451 275.726 198.24 276.66 197.841C277.593 197.442 278.439 196.863 279.149 196.138C279.859 195.412 280.419 194.553 280.797 193.611C281.175 192.669 281.363 191.661 281.352 190.646C281.352 190.459 281.352 190.275 281.325 190.09H281.352C285.874 190.09 289.538 186.343 289.538 181.718C289.545 180.189 289.133 178.687 288.348 177.375C287.563 176.063 286.434 174.991 285.083 174.273Z" fill="url(#paint6_linear)"/>
<path d="M283.901 174.227C284.851 173.141 285.556 171.864 285.97 170.482C286.383 169.1 286.495 167.646 286.298 166.217C286.101 164.788 285.599 163.419 284.827 162.2C284.054 160.982 283.029 159.944 281.821 159.156C282.445 158.19 282.777 157.065 282.775 155.914C282.809 154.511 282.328 153.144 281.423 152.071C280.517 150.997 279.25 150.293 277.861 150.09C276.471 149.887 275.055 150.199 273.881 150.968C272.706 151.737 271.853 152.909 271.483 154.263C270.734 152.978 269.661 151.91 268.371 151.166C267.081 150.423 265.62 150.029 264.131 150.024C259.388 150.024 255.545 153.955 255.545 158.805C255.544 159.838 255.722 160.863 256.071 161.835C255.897 161.835 255.736 161.809 255.545 161.809C253.7 161.83 251.938 162.582 250.646 163.901C249.354 165.219 248.638 166.996 248.655 168.841C248.655 169.083 248.655 169.32 248.689 169.551C247.14 170.246 245.826 171.375 244.907 172.802C243.989 174.229 243.504 175.892 243.513 177.589C243.513 182.421 247.345 186.34 252.072 186.34C252.568 186.339 253.064 186.294 253.552 186.206C253.526 186.497 253.512 186.792 253.512 187.09C253.512 192.512 257.813 196.909 263.116 196.909C265.077 196.91 266.989 196.299 268.586 195.161C269.87 196.288 271.52 196.909 273.229 196.909C275.153 196.887 276.989 196.102 278.335 194.727C279.68 193.351 280.424 191.498 280.404 189.575C280.404 189.401 280.404 189.24 280.377 189.056H280.404C281.424 189.044 282.433 188.832 283.371 188.431C284.31 188.03 285.16 187.448 285.874 186.719C286.587 185.989 287.15 185.126 287.53 184.179C287.91 183.232 288.099 182.219 288.088 181.199C288.091 179.766 287.702 178.359 286.965 177.13C286.227 175.902 285.167 174.898 283.901 174.227Z" fill="#00897B"/>
<path d="M268.753 163.018H266.523V218.49H268.753V163.018Z" fill="url(#paint7_linear)"/>
<path d="M268.278 163.798H267.156V218.49H268.278V163.798Z" fill="#795548"/>
<path d="M276.256 169.958L267.048 179.9L267.871 180.662L277.08 170.72L276.256 169.958Z" fill="#795548"/>
<path d="M258.253 181.308L257.584 182.208L267.13 189.297L267.799 188.396L258.253 181.308Z" fill="#795548"/>
<path d="M265.213 135.811H170.751V219.869H265.213V135.811Z" fill="url(#paint8_linear)"/>
<path d="M262.868 135.811H108.781V217.19H262.868V135.811Z" fill="white"/>
<path d="M270.241 143.848H118.833V104.331H264.714C266.18 104.331 267.585 104.913 268.622 105.949C269.658 106.985 270.241 108.391 270.241 109.856V143.848Z" fill="url(#paint9_linear)"/>
<path d="M118.83 105.895H263.411C264.877 105.895 266.282 106.477 267.319 107.513C268.355 108.549 268.938 109.955 268.938 111.42V142.83H118.83V105.895Z" fill="#6C63FF"/>
<path opacity="0.7" d="M118.83 105.895H263.411C264.877 105.895 266.282 106.477 267.319 107.513C268.355 108.549 268.938 109.955 268.938 111.42V142.83H118.83V105.895Z" fill="white"/>
<path d="M118.495 61.4609L66.2395 98.2525V129.254V219.866H170.751V129.254V98.2525L118.495 61.4609Z" fill="url(#paint10_linear)"/>
<path d="M168.406 97.6329L118.83 61.4609L69.2542 97.6329V128.105H168.406V97.6329Z" fill="#6C63FF"/>
<path opacity="0.5" d="M168.406 97.6329L118.83 61.4609L69.2542 97.6329V128.105H168.406V97.6329Z" fill="white"/>
<path d="M168.406 128.108H69.2542V217.19H168.406V128.108Z" fill="white"/>
<path d="M174.77 115.714L118.83 75.7776L62.2198 115.714L58.5351 101.668L118.83 57.7937L179.125 101.668L174.77 115.714Z" fill="url(#paint11_linear)"/>
<path d="M174.258 113.658L118.83 73.3261L63.4056 113.658L61.0374 101.029L118.83 58.9792L176.626 101.029L174.258 113.658Z" fill="#6C63FF"/>
<path opacity="0.2" d="M174.258 113.658L118.83 73.3261L63.4056 113.658L61.0374 101.029L118.83 58.9792L176.626 101.029L174.258 113.658Z" fill="black"/>
<path d="M146.968 147.532H90.6924V217.19H146.968V147.532Z" fill="#F2F2F2"/>
<path d="M146.968 147.532H90.6924V159.588H146.968V147.532Z" fill="#6C63FF"/>
<path d="M146.968 205.134H90.6924V217.19H146.968V205.134Z" fill="#6C63FF"/>
<path d="M213.071 192.143C213.204 192.143 213.332 192.09 213.426 191.996C213.521 191.902 213.574 191.774 213.574 191.641C213.574 191.508 213.521 191.38 213.426 191.286C213.332 191.192 213.204 191.139 213.071 191.139C212.938 191.139 212.81 191.192 212.716 191.286C212.622 191.38 212.569 191.508 212.569 191.641C212.569 191.774 212.622 191.902 212.716 191.996C212.81 192.09 212.938 192.143 213.071 192.143Z" fill="#00FF00"/>
<path d="M226.691 166.286H199.223V217.19H226.691V166.286Z" fill="#F2F2F2"/>
<path d="M259.518 155.57H233.725V174.324H259.518V155.57Z" fill="#F2F2F2"/>
<path opacity="0.2" d="M259.518 155.57H233.725V163.942H259.518V155.57Z" fill="#6C63FF"/>
<path d="M55.3328 182.616C53.8344 181.033 52.9958 178.938 52.988 176.758C52.9981 175.257 53.3964 173.784 54.1441 172.482C54.8919 171.179 55.9637 170.093 57.2555 169.327C56.6759 168.486 56.3652 167.489 56.3645 166.467C56.3892 165.065 56.9697 163.73 57.9784 162.755C58.9871 161.781 60.3416 161.246 61.7442 161.27C62.8943 161.257 64.0182 161.614 64.9495 162.289C65.8809 162.964 66.5704 163.92 66.9161 165.017C67.6502 163.863 68.6654 162.915 69.8665 162.26C71.0676 161.606 72.4153 161.267 73.7831 161.276C78.2114 161.276 81.8023 164.746 81.8023 169.022C81.8031 169.938 81.6362 170.846 81.3099 171.702C81.474 171.702 81.6448 171.678 81.8023 171.678C85.3563 171.678 88.2371 174.461 88.2371 177.894C88.2367 178.103 88.2255 178.312 88.2036 178.52C89.621 179.091 90.8369 180.07 91.6973 181.333C92.5578 182.596 93.0241 184.085 93.0372 185.613C93.0372 189.876 89.4597 193.332 85.0448 193.332C84.5812 193.332 84.1184 193.293 83.6614 193.215C83.6848 193.473 83.6982 193.731 83.6982 193.995C83.6982 198.781 79.6786 202.659 74.731 202.659C72.9126 202.664 71.134 202.126 69.6227 201.115C68.3999 202.118 66.8662 202.664 65.2848 202.659C61.6001 202.659 58.5854 199.762 58.5854 196.186C58.5854 196.032 58.5854 195.878 58.6088 195.727H58.5854C54.6227 195.727 51.4103 192.622 51.4103 188.798C51.4188 187.503 51.7911 186.237 52.4847 185.144C53.1782 184.051 54.1651 183.175 55.3328 182.616Z" fill="url(#paint12_linear)"/>
<path d="M56.0463 182.589C54.6196 181.07 53.8244 179.066 53.8221 176.983C53.8304 175.545 54.2108 174.135 54.9264 172.888C55.642 171.642 56.6683 170.602 57.9054 169.87C57.3508 169.064 57.0541 168.108 57.0545 167.13C57.0659 166.465 57.2081 165.809 57.4732 165.199C57.7383 164.589 58.1209 164.037 58.5993 163.575C59.0778 163.113 59.6425 162.749 60.2615 162.506C60.8804 162.262 61.5413 162.142 62.2064 162.154C63.3049 162.143 64.3778 162.485 65.2673 163.129C66.1568 163.774 66.8158 164.687 67.1472 165.734C67.8497 164.629 68.8213 163.721 69.9709 163.095C71.1205 162.469 72.4103 162.145 73.7194 162.154C77.9568 162.154 81.3936 165.472 81.3936 169.568C81.3945 170.442 81.2355 171.31 80.9246 172.127C81.0787 172.127 81.2362 172.103 81.3936 172.103C84.7969 172.103 87.5537 174.782 87.5537 178.054C87.554 178.255 87.5439 178.455 87.5236 178.654C88.8797 179.202 90.0427 180.14 90.8656 181.348C91.6884 182.557 92.1341 183.983 92.1462 185.446C92.1462 189.528 88.7228 192.837 84.4954 192.837C84.0464 192.837 83.5982 192.799 83.1555 192.723C83.179 192.967 83.1924 193.218 83.1924 193.47C83.1924 198.048 79.3503 201.762 74.6071 201.762C72.8727 201.762 71.1774 201.246 69.7366 200.281C68.5666 201.241 67.0993 201.763 65.5863 201.758C62.0456 201.758 59.1749 198.985 59.1749 195.563C59.1749 195.415 59.1749 195.268 59.1984 195.124H59.1749C55.383 195.124 52.308 192.153 52.308 188.49C52.3179 187.255 52.6733 186.048 53.334 185.005C53.9947 183.962 54.9342 183.125 56.0463 182.589Z" fill="#009688"/>
<path d="M71.8101 173.915H69.2978V220H71.8101V173.915Z" fill="url(#paint13_linear)"/>
<path d="M71.2875 173.915H69.9008V220H71.2875V173.915Z" fill="#795548"/>
<path d="M62.9991 178.836L62.0088 179.806L70.2395 188.2L71.2298 187.23L62.9991 178.836Z" fill="#795548"/>
<path d="M78.872 188.371L70.3392 194.358L71.1358 195.493L79.6686 189.506L78.872 188.371Z" fill="#795548"/>
<path d="M38.9192 182.616C37.4207 181.033 36.5822 178.938 36.5744 176.758C36.5845 175.257 36.9827 173.784 37.7305 172.482C38.4782 171.179 39.5501 170.093 40.8419 169.327C40.2622 168.486 39.9515 167.489 39.9509 166.467C39.9755 165.065 40.556 163.73 41.5647 162.755C42.5735 161.781 43.9279 161.246 45.3305 161.27C46.4807 161.257 47.6045 161.614 48.5359 162.289C49.4673 162.964 50.1568 163.92 50.5025 165.017C51.2366 163.863 52.2518 162.915 53.4529 162.26C54.654 161.606 56.0016 161.267 57.3694 161.276C61.7978 161.276 65.3887 164.746 65.3887 169.022C65.3895 169.938 65.2226 170.846 64.8962 171.702C65.0604 171.702 65.2312 171.678 65.3887 171.678C68.9427 171.678 71.8235 174.461 71.8235 177.894C71.8231 178.103 71.8119 178.312 71.79 178.52C73.2073 179.091 74.4232 180.07 75.2837 181.333C76.1442 182.596 76.6105 184.085 76.6236 185.613C76.6236 189.876 73.0461 193.332 68.6312 193.332C68.1676 193.332 67.7048 193.293 67.2477 193.215C67.2712 193.473 67.2846 193.731 67.2846 193.995C67.2846 198.781 63.2649 202.659 58.3174 202.659C56.4989 202.664 54.7203 202.126 53.2091 201.115C51.9863 202.118 50.4526 202.664 48.8712 202.659C45.1865 202.659 42.1717 199.762 42.1717 196.186C42.1717 196.032 42.1717 195.878 42.1952 195.727H42.1717C38.209 195.727 34.9966 192.622 34.9966 188.798C35.0052 187.503 35.3775 186.237 36.071 185.144C36.7646 184.051 37.7515 183.175 38.9192 182.616Z" fill="url(#paint14_linear)"/>
<path d="M39.6326 182.589C38.206 181.07 37.4107 179.066 37.4084 176.983C37.4167 175.545 37.7972 174.135 38.5128 172.888C39.2284 171.642 40.2547 170.602 41.4917 169.87C40.9371 169.064 40.6404 168.108 40.6409 167.13C40.6522 166.465 40.7945 165.809 41.0596 165.199C41.3246 164.589 41.7073 164.037 42.1857 163.575C42.6641 163.113 43.2289 162.749 43.8478 162.506C44.4667 162.262 45.1276 162.142 45.7928 162.154C46.8912 162.143 47.9642 162.485 48.8537 163.129C49.7432 163.774 50.4022 164.687 50.7336 165.734C51.4361 164.629 52.4077 163.721 53.5573 163.095C54.7068 162.469 55.9967 162.145 57.3058 162.154C61.5431 162.154 64.98 165.472 64.98 169.568C64.9808 170.442 64.8219 171.31 64.511 172.127C64.6651 172.127 64.8225 172.103 64.98 172.103C68.3833 172.103 71.1401 174.782 71.1401 178.054C71.1404 178.255 71.1303 178.455 71.11 178.654C72.466 179.202 73.6291 180.14 74.452 181.348C75.2748 182.557 75.7205 183.983 75.7326 185.446C75.7326 189.528 72.3091 192.837 68.0818 192.837C67.6328 192.837 67.1845 192.799 66.7419 192.723C66.7654 192.967 66.7788 193.218 66.7788 193.47C66.7788 198.048 62.9366 201.762 58.1934 201.762C56.4591 201.762 54.7638 201.246 53.3229 200.281C52.153 201.241 50.6856 201.763 49.1726 201.758C45.632 201.758 42.7613 198.985 42.7613 195.563C42.7613 195.415 42.7613 195.268 42.7847 195.124H42.7613C38.9694 195.124 35.8943 192.153 35.8943 188.49C35.9042 187.255 36.2597 186.048 36.9203 185.005C37.581 183.962 38.5206 183.125 39.6326 182.589Z" fill="#009688"/>
<path d="M55.3964 173.915H52.8842V220H55.3964V173.915Z" fill="url(#paint15_linear)"/>
<path d="M54.8739 173.915H53.4871V220H54.8739V173.915Z" fill="#795548"/>
<path d="M46.5884 178.836L45.5981 179.807L53.8288 188.201L54.8191 187.23L46.5884 178.836Z" fill="#795548"/>
<path d="M62.4587 188.373L53.9258 194.36L54.7225 195.495L63.2553 189.508L62.4587 188.373Z" fill="#795548"/>
<path d="M76.2585 182.981C77.1044 182.017 77.7331 180.882 78.1019 179.654C78.4706 178.425 78.5709 177.132 78.3958 175.861C78.2208 174.591 77.7745 173.373 77.0873 172.29C76.4001 171.207 75.488 170.285 74.4128 169.585C74.9675 168.727 75.2618 167.727 75.2603 166.705C75.2911 165.458 74.8641 164.243 74.06 163.289C73.2558 162.336 72.1303 161.709 70.8958 161.529C69.6614 161.348 68.4035 161.626 67.3599 162.309C66.3162 162.993 65.559 164.035 65.2312 165.238C64.5655 164.096 63.6129 163.148 62.4678 162.487C61.3227 161.826 60.0248 161.476 58.7026 161.47C57.6894 161.481 56.6882 161.69 55.7562 162.088C54.8242 162.485 53.9798 163.063 53.2713 163.787C52.5628 164.511 52.0042 165.368 51.6273 166.308C51.2505 167.248 51.0629 168.254 51.0753 169.267C51.0753 170.18 51.2328 171.086 51.5409 171.946C51.3868 171.946 51.2328 171.923 51.0753 171.923C50.2592 171.931 49.4529 172.1 48.7026 172.421C47.9523 172.742 47.2729 173.209 46.7035 173.793C46.1341 174.378 45.6859 175.069 45.3847 175.827C45.0836 176.586 44.9354 177.396 44.9487 178.212C44.9487 178.426 44.9487 178.637 44.9788 178.845C43.6033 179.462 42.4366 180.465 41.6208 181.733C40.8049 183 40.3749 184.477 40.383 185.985C40.3642 188.022 41.1534 189.984 42.5779 191.44C44.0023 192.897 45.946 193.73 47.9835 193.758C48.4249 193.758 48.8655 193.718 49.3 193.64C49.2765 193.898 49.2631 194.16 49.2631 194.424C49.2631 199.24 53.0818 203.131 57.7915 203.131C59.5328 203.131 61.2305 202.588 62.6486 201.577C63.7893 202.578 65.2547 203.13 66.7721 203.131C68.4797 203.11 70.109 202.412 71.3023 201.191C72.4956 199.97 73.1553 198.325 73.1366 196.618C73.1366 196.46 73.1366 196.31 73.1131 196.156H73.1366C74.9664 196.134 76.713 195.388 77.9925 194.08C79.2719 192.772 79.9796 191.009 79.9599 189.18C79.9653 187.908 79.6235 186.658 78.9713 185.566C78.319 184.473 77.3811 183.58 76.2585 182.981Z" fill="url(#paint16_linear)"/>
<path d="M75.2737 182.94C76.0649 182.036 76.6526 180.971 76.9971 179.82C77.3415 178.668 77.4346 177.456 77.2701 176.266C77.1056 175.075 76.6873 173.934 76.0435 172.919C75.3998 171.903 74.5455 171.038 73.5385 170.382C74.0585 169.577 74.3342 168.638 74.3324 167.679C74.3636 166.508 73.964 165.365 73.2093 164.469C72.4545 163.572 71.3971 162.983 70.2372 162.813C69.0773 162.644 67.8955 162.905 66.9155 163.548C65.9355 164.191 65.2254 165.172 64.9197 166.303C64.2946 165.231 63.4002 164.34 62.325 163.72C61.2497 163.1 60.0311 162.771 58.7897 162.766C56.8724 162.793 55.0439 163.578 53.7052 164.951C52.3664 166.323 51.6266 168.17 51.6481 170.087C51.6474 170.948 51.7959 171.802 52.0869 172.612C51.9429 172.612 51.7955 172.589 51.6481 172.589C50.1073 172.607 48.6365 173.235 47.5593 174.337C46.482 175.438 45.8864 176.922 45.9033 178.463C45.9033 178.664 45.9033 178.861 45.9335 179.056C44.6427 179.634 43.5478 180.575 42.7819 181.764C42.016 182.953 41.612 184.339 41.619 185.754C41.5985 187.667 42.3385 189.509 43.6764 190.877C45.0143 192.245 46.8406 193.026 48.7539 193.048C49.1684 193.047 49.582 193.01 49.99 192.937C49.9699 193.182 49.9565 193.426 49.9565 193.674C49.9565 198.195 53.5407 201.859 57.9623 201.859C59.5967 201.86 61.1905 201.35 62.5213 200.402C63.5914 201.338 64.9649 201.854 66.3869 201.855C67.1813 201.847 67.9663 201.681 68.6969 201.369C69.4275 201.057 70.0895 200.604 70.6451 200.037C71.2006 199.469 71.6388 198.797 71.9347 198.06C72.2306 197.323 72.3783 196.534 72.3695 195.74C72.3695 195.593 72.3695 195.449 72.3494 195.305H72.3695C73.2202 195.295 74.0608 195.118 74.8431 194.784C75.6254 194.449 76.3341 193.964 76.9289 193.356C77.5236 192.747 77.9927 192.028 78.3093 191.239C78.6259 190.449 78.7839 189.605 78.7741 188.754C78.7758 187.558 78.4506 186.385 77.8336 185.36C77.2167 184.335 76.3315 183.499 75.2737 182.94Z" fill="#00897B"/>
<path d="M62.6419 173.597H60.7828V219.843H62.6419V173.597Z" fill="url(#paint17_linear)"/>
<path d="M62.2466 174.247H61.312V219.842H62.2466V174.247Z" fill="#795548"/>
<path d="M68.9083 179.384L61.2316 187.672L61.9173 188.307L69.594 180.019L68.9083 179.384Z" fill="#795548"/>
<path d="M53.8898 188.843L53.3326 189.594L61.2926 195.504L61.8498 194.754L53.8898 188.843Z" fill="#795548"/>
<path d="M273.945 74.6757C269.208 69.7485 263.533 65.8186 257.254 63.1173C250.975 60.4159 244.218 58.9978 237.383 58.9463C230.547 58.8948 223.77 60.211 217.451 62.8174C211.131 65.4239 205.398 69.2679 200.587 74.1231C181.188 93.6743 180.86 125.506 199.833 145.456C208.167 154.231 219.338 159.774 231.368 161.104C243.399 162.433 255.511 159.463 265.561 152.72L302.609 191.233C302.836 191.469 303.107 191.658 303.407 191.79C303.707 191.921 304.03 191.992 304.358 191.999C304.686 192.006 305.011 191.947 305.317 191.828C305.622 191.709 305.9 191.53 306.136 191.303L315.365 182.431C315.601 182.205 315.791 181.934 315.922 181.633C316.054 181.333 316.125 181.01 316.131 180.683C316.138 180.355 316.08 180.03 315.96 179.725C315.841 179.42 315.662 179.141 315.435 178.905L278.387 140.392C285.491 130.663 288.94 118.744 288.127 106.726C287.315 94.708 282.294 83.3605 273.945 74.6757ZM262.406 136.604C257.181 141.629 250.583 144.992 243.446 146.268C236.31 147.544 228.955 146.676 222.312 143.773C215.669 140.87 210.036 136.062 206.126 129.959C202.216 123.855 200.204 116.729 200.345 109.483C200.485 102.236 202.772 95.1934 206.916 89.2459C211.06 83.2985 216.874 78.7131 223.625 76.0697C230.375 73.4262 237.758 72.8434 244.84 74.3949C251.922 75.9464 258.385 79.5626 263.411 84.7862C266.748 88.2546 269.369 92.3462 271.125 96.8274C272.88 101.309 273.736 106.092 273.643 110.903C273.549 115.715 272.509 120.461 270.581 124.871C268.653 129.281 265.875 133.268 262.406 136.604Z" fill="url(#paint18_linear)"/>
<path d="M209.852 99.9971C205.728 99.9971 205.722 106.4 209.852 106.4C213.982 106.4 213.979 99.9971 209.852 99.9971Z" fill="url(#paint19_linear)"/>
<path d="M238.586 79.4816C227.492 79.2304 217.392 84.7963 212.026 93.2122C210.274 95.9517 215.248 98.373 216.99 95.6469C221.435 88.6912 229.883 84.2605 239.011 84.505C248.585 84.7461 257.297 90.2216 261.91 97.8204C263.662 100.704 268.244 98.0816 266.506 95.2149C260.908 85.9819 250.049 79.7394 238.586 79.4816Z" fill="url(#paint20_linear)"/>
<path d="M277.965 72.7268C273.228 67.7996 267.553 63.8696 261.273 61.1683C254.994 58.4669 248.238 57.0488 241.402 56.9973C234.566 56.9458 227.79 58.262 221.47 60.8685C215.151 63.4749 209.417 67.3189 204.606 72.1742C185.208 91.7253 184.88 123.557 203.853 143.507C212.187 152.282 223.358 157.825 235.388 159.155C247.418 160.484 259.531 157.514 269.581 150.771L306.629 189.284C306.856 189.52 307.127 189.709 307.427 189.841C307.727 189.972 308.05 190.044 308.378 190.05C308.705 190.057 309.031 189.998 309.336 189.879C309.641 189.76 309.92 189.581 310.156 189.354L319.388 180.479C319.624 180.252 319.814 179.981 319.945 179.681C320.077 179.381 320.148 179.058 320.154 178.731C320.161 178.403 320.103 178.077 319.983 177.772C319.864 177.467 319.685 177.189 319.458 176.953L282.41 138.44C289.513 128.711 292.96 116.792 292.147 104.775C291.334 92.7576 286.313 81.4109 277.965 72.7268ZM266.425 134.655C261.201 139.68 254.603 143.043 247.466 144.319C240.329 145.595 232.975 144.727 226.332 141.824C219.689 138.921 214.056 134.113 210.146 128.01C206.236 121.906 204.224 114.78 204.364 107.534C204.505 100.287 206.792 93.2444 210.935 87.297C215.079 81.3495 220.894 76.7642 227.645 74.1207C234.395 71.4772 241.778 70.8944 248.86 72.4459C255.942 73.9975 262.404 77.6137 267.43 82.8372C270.768 86.3056 273.389 90.3972 275.144 94.8784C276.9 99.3596 277.756 104.143 277.662 108.954C277.569 113.766 276.529 118.513 274.601 122.922C272.673 127.332 269.895 131.319 266.425 134.655Z" fill="#6C63FF"/>
<path d="M213.872 98.0381C209.748 98.0381 209.741 104.441 213.872 104.441C218.002 104.441 217.998 98.0381 213.872 98.0381Z" fill="#6C63FF"/>
<path d="M242.606 77.5323C231.511 77.2812 221.412 82.8471 216.046 91.263C214.294 94.0025 219.268 96.4238 221.01 93.6977C225.455 86.7419 233.903 82.3113 243.031 82.5558C252.604 82.7969 261.317 88.2724 265.93 95.8712C267.682 98.7546 272.264 96.1324 270.525 93.2657C264.928 84.0393 254.068 77.7936 242.606 77.5323Z" fill="#6C63FF"/>
</g>
<path opacity="0.1" d="M389 153.51C389.007 159.986 388.223 166.438 386.665 172.724C386.141 174.842 385.532 176.916 384.839 178.946C383.99 181.452 383.007 183.91 381.893 186.31C381.331 187.524 380.738 188.714 380.113 189.88C380.123 196.52 378.754 203.091 376.093 209.176C371.283 220.094 362.706 228.922 351.924 234.051C345.184 237.264 337.817 238.954 330.348 239H73.8507C62.4386 239.024 51.2236 236.029 41.3459 230.32L41.194 230.234C39.7871 229.412 38.4154 228.541 37.0789 227.621C34.0719 225.546 31.2468 223.22 28.634 220.667C25.0977 217.215 21.9815 213.358 19.3503 209.176C13.1703 199.374 9.89649 188.023 9.90797 176.439C3.64943 165.47 0 152.329 0 138.209C0 120.394 5.79946 104.143 15.3276 91.8404C17.3141 89.2702 19.49 86.8518 21.8372 84.6055C24.1531 82.3826 26.6423 80.3472 29.2813 78.5186C31.3927 77.054 33.5994 75.7315 35.8867 74.5597C36.8411 74.0747 37.7989 73.6162 38.7732 73.1906C39.6286 72.8112 40.4939 72.4582 41.3691 72.125C42.4193 71.7269 43.4828 71.3607 44.5594 71.0264C45.6361 70.6921 46.6984 70.3996 47.7465 70.1488C49.2877 69.7727 50.8554 69.467 52.4495 69.2317C53.7705 69.037 55.0916 68.9018 56.4127 68.7995C57.4629 68.7203 58.523 68.6774 59.5898 68.6642H60.1678C61.3435 68.6642 62.5127 68.7104 63.6719 68.7896C63.7941 68.5454 63.9262 68.298 64.0484 68.0572C64.5108 67.1763 64.9896 66.2988 65.4718 65.441C65.4707 65.4333 65.4707 65.4256 65.4718 65.4179C65.5544 65.2662 65.637 65.1177 65.7228 64.9725C66.1125 64.2698 66.5188 63.5737 66.9349 62.8842C67.1265 62.5543 67.3147 62.2442 67.5096 61.9341C67.5508 61.857 67.596 61.7821 67.645 61.7097C67.8431 61.3798 68.0446 61.0499 68.2494 60.72C69.2688 59.0924 70.3289 57.4935 71.4298 55.9231L71.7106 55.5206C71.8823 55.2765 72.0408 55.039 72.2324 54.7948C72.6881 54.1581 73.1571 53.5181 73.6294 52.8912C73.9597 52.4426 74.2899 51.9972 74.6466 51.5716C75.5053 50.4719 76.386 49.3722 77.2887 48.2725C78.1915 47.1728 79.1294 46.0874 80.1026 45.0163C80.2347 44.8678 80.3668 44.7227 80.5055 44.5775L81.9158 43.0401C81.9851 42.9676 82.0446 42.9016 82.1106 42.8356C82.279 42.6542 82.4409 42.4727 82.6225 42.2978C83.3788 41.4962 84.155 40.711 84.9344 39.9291C88.901 35.9825 93.1268 32.3047 97.5836 28.92C97.7586 28.7814 97.9369 28.6495 98.112 28.5175C98.9509 27.8874 99.8029 27.2639 100.655 26.6502C105.342 23.2916 110.241 20.2391 115.322 17.5117C115.672 17.3105 116.029 17.1224 116.389 16.9377C120.944 14.5304 125.629 12.3761 130.422 10.4847C133.034 9.45204 135.706 8.48211 138.394 7.59465C140.184 7.00741 141.981 6.44987 143.801 5.92531C146.646 5.10714 149.51 4.37364 152.394 3.72481C160.892 1.8202 169.537 0.643645 178.234 0.207977C180.877 0.0738133 183.548 0.00453323 186.25 0.000134439C199.286 -0.0171046 212.27 1.62364 224.891 4.8828C225.021 5.07978 225.2 5.24037 225.41 5.34945C225.619 5.45853 225.854 5.51251 226.09 5.50632H227.2C227.682 5.63829 228.161 5.77025 228.643 5.90881C231.336 6.683 233.99 7.52867 236.606 8.44582L237.266 8.68336C243.722 10.9765 250.003 13.733 256.061 16.9311C261.522 19.8071 266.78 23.0522 271.799 26.6436C272.571 27.1979 273.333 27.7565 274.084 28.3196C274.996 27.7367 275.923 27.1781 276.865 26.6436C280.504 24.5732 284.369 22.9272 288.385 21.7379C296.779 19.2564 305.661 18.9093 314.225 20.7284C325.206 23.0542 335.147 28.8276 343.176 37.0391C346.445 40.3988 349.355 44.0895 351.858 48.0515C352.04 48.3352 352.222 48.6222 352.397 48.9125C354.548 52.4191 356.398 56.1021 357.925 59.9216C357.981 60.0635 358.038 60.1954 358.087 60.334C359.497 63.9106 360.634 67.5886 361.489 71.3365C361.528 71.5278 361.575 71.7159 361.614 71.9072C362.414 75.5343 362.957 79.2131 363.239 82.9163C363.239 83.0483 363.239 83.1835 363.266 83.3221C363.404 85.2378 363.475 87.1733 363.477 89.1285C363.477 90.877 363.418 92.6124 363.309 94.3345C363.309 94.5225 363.282 94.7172 363.266 94.9118C363.236 95.41 363.193 95.9016 363.15 96.403C365.672 98.4355 368.033 100.66 370.211 103.057C371.173 104.106 372.105 105.195 373.005 106.323C375.748 109.757 378.159 113.444 380.205 117.332C385.79 127.863 389 140.251 389 153.51Z" fill="#6C63FF"/>
<defs>
<linearGradient id="paint0_linear" x1="321.367" y1="182.301" x2="321.367" y2="109.461" gradientUnits="userSpaceOnUse">
<stop stop-color="#808080" stop-opacity="0.25"/>
<stop offset="0.54" stop-color="#808080" stop-opacity="0.12"/>
<stop offset="1" stop-color="#808080" stop-opacity="0.1"/>
</linearGradient>
<linearGradient id="paint1_linear" x1="4054.56" y1="37883.3" x2="4054.56" y2="18232.4" gradientUnits="userSpaceOnUse">
<stop stop-color="#808080" stop-opacity="0.25"/>
<stop offset="0.54" stop-color="#808080" stop-opacity="0.12"/>
<stop offset="1" stop-color="#808080" stop-opacity="0.1"/>
</linearGradient>
<linearGradient id="paint2_linear" x1="64890.1" y1="47023.8" x2="64890.1" y2="30474.9" gradientUnits="userSpaceOnUse">
<stop stop-color="#808080" stop-opacity="0.25"/>
<stop offset="0.54" stop-color="#808080" stop-opacity="0.12"/>
<stop offset="1" stop-color="#808080" stop-opacity="0.1"/>
</linearGradient>
<linearGradient id="paint3_linear" x1="2870.21" y1="38960.1" x2="2870.21" y2="18564.9" gradientUnits="userSpaceOnUse">
<stop stop-color="#808080" stop-opacity="0.25"/>
<stop offset="0.54" stop-color="#808080" stop-opacity="0.12"/>
<stop offset="1" stop-color="#808080" stop-opacity="0.1"/>
</linearGradient>
<linearGradient id="paint4_linear" x1="43625.8" y1="33232.3" x2="43625.8" y2="25874.9" gradientUnits="userSpaceOnUse">
<stop stop-color="#808080" stop-opacity="0.25"/>
<stop offset="0.54" stop-color="#808080" stop-opacity="0.12"/>
<stop offset="1" stop-color="#808080" stop-opacity="0.1"/>
</linearGradient>
<linearGradient id="paint5_linear" x1="2431.39" y1="26651.8" x2="2431.39" y2="17526.5" gradientUnits="userSpaceOnUse">
<stop stop-color="#808080" stop-opacity="0.25"/>
<stop offset="0.54" stop-color="#808080" stop-opacity="0.12"/>
<stop offset="1" stop-color="#808080" stop-opacity="0.1"/>
</linearGradient>
<linearGradient id="paint6_linear" x1="39907.5" y1="33721.6" x2="39907.5" y2="26265.6" gradientUnits="userSpaceOnUse">
<stop stop-color="#808080" stop-opacity="0.25"/>
<stop offset="0.54" stop-color="#808080" stop-opacity="0.12"/>
<stop offset="1" stop-color="#808080" stop-opacity="0.1"/>
</linearGradient>
<linearGradient id="paint7_linear" x1="1815.9" y1="26912.2" x2="1815.9" y2="17723.8" gradientUnits="userSpaceOnUse">
<stop stop-color="#808080" stop-opacity="0.25"/>
<stop offset="0.54" stop-color="#808080" stop-opacity="0.12"/>
<stop offset="1" stop-color="#808080" stop-opacity="0.1"/>
</linearGradient>
<linearGradient id="paint8_linear" x1="51771.6" y1="41016" x2="51771.6" y2="19917.3" gradientUnits="userSpaceOnUse">
<stop stop-color="#808080" stop-opacity="0.25"/>
<stop offset="0.54" stop-color="#808080" stop-opacity="0.12"/>
<stop offset="1" stop-color="#808080" stop-opacity="0.1"/>
</linearGradient>
<linearGradient id="paint9_linear" x1="94380.5" y1="20210.5" x2="94380.5" y2="15547.4" gradientUnits="userSpaceOnUse">
<stop stop-color="#808080" stop-opacity="0.25"/>
<stop offset="0.54" stop-color="#808080" stop-opacity="0.12"/>
<stop offset="1" stop-color="#808080" stop-opacity="0.1"/>
</linearGradient>
<linearGradient id="paint10_linear" x1="26116.7" y1="77098.7" x2="26116.7" y2="2173" gradientUnits="userSpaceOnUse">
<stop stop-color="#808080" stop-opacity="0.25"/>
<stop offset="0.54" stop-color="#808080" stop-opacity="0.12"/>
<stop offset="1" stop-color="#808080" stop-opacity="0.1"/>
</linearGradient>
<linearGradient id="paint11_linear" x1="30237.4" y1="10212.9" x2="30237.4" y2="195.065" gradientUnits="userSpaceOnUse">
<stop stop-color="#808080" stop-opacity="0.25"/>
<stop offset="0.54" stop-color="#808080" stop-opacity="0.12"/>
<stop offset="1" stop-color="#808080" stop-opacity="0.1"/>
</linearGradient>
<linearGradient id="paint12_linear" x1="10767.4" y1="28487.2" x2="10767.4" y2="23373" gradientUnits="userSpaceOnUse">
<stop stop-color="#808080" stop-opacity="0.25"/>
<stop offset="0.54" stop-color="#808080" stop-opacity="0.12"/>
<stop offset="1" stop-color="#808080" stop-opacity="0.1"/>
</linearGradient>
<linearGradient id="paint13_linear" x1="335.952" y1="22604.4" x2="335.952" y2="16262.6" gradientUnits="userSpaceOnUse">
<stop stop-color="#808080" stop-opacity="0.25"/>
<stop offset="0.54" stop-color="#808080" stop-opacity="0.12"/>
<stop offset="1" stop-color="#808080" stop-opacity="0.1"/>
</linearGradient>
<linearGradient id="paint14_linear" x1="8711.3" y1="28487.2" x2="8711.3" y2="23373" gradientUnits="userSpaceOnUse">
<stop stop-color="#808080" stop-opacity="0.25"/>
<stop offset="0.54" stop-color="#808080" stop-opacity="0.12"/>
<stop offset="1" stop-color="#808080" stop-opacity="0.1"/>
</linearGradient>
<linearGradient id="paint15_linear" x1="196.436" y1="22604.4" x2="196.436" y2="16262.6" gradientUnits="userSpaceOnUse">
<stop stop-color="#808080" stop-opacity="0.25"/>
<stop offset="0.54" stop-color="#808080" stop-opacity="0.12"/>
<stop offset="1" stop-color="#808080" stop-opacity="0.1"/>
</linearGradient>
<linearGradient id="paint16_linear" x1="8806.04" y1="28734.6" x2="8806.04" y2="23552.4" gradientUnits="userSpaceOnUse">
<stop stop-color="#808080" stop-opacity="0.25"/>
<stop offset="0.54" stop-color="#808080" stop-opacity="0.12"/>
<stop offset="1" stop-color="#808080" stop-opacity="0.1"/>
</linearGradient>
<linearGradient id="paint17_linear" x1="209.045" y1="22660.5" x2="209.045" y2="16274.5" gradientUnits="userSpaceOnUse">
<stop stop-color="#808080" stop-opacity="0.25"/>
<stop offset="0.54" stop-color="#808080" stop-opacity="0.12"/>
<stop offset="1" stop-color="#808080" stop-opacity="0.1"/>
</linearGradient>
<linearGradient id="paint18_linear" x1="250.98" y1="192.009" x2="250.98" y2="58.9491" gradientUnits="userSpaceOnUse">
<stop stop-color="#B3B3B3" stop-opacity="0.25"/>
<stop offset="0.54" stop-color="#B3B3B3" stop-opacity="0.1"/>
<stop offset="1" stop-color="#B3B3B3" stop-opacity="0.05"/>
</linearGradient>
<linearGradient id="paint19_linear" x1="209.852" y1="106.404" x2="209.852" y2="99.9971" gradientUnits="userSpaceOnUse">
<stop stop-opacity="0.12"/>
<stop offset="0.55" stop-opacity="0.09"/>
<stop offset="1" stop-opacity="0.02"/>
</linearGradient>
<linearGradient id="paint20_linear" x1="41975.9" y1="7429.57" x2="41975.9" y2="6283.47" gradientUnits="userSpaceOnUse">
<stop stop-opacity="0.12"/>
<stop offset="0.55" stop-opacity="0.09"/>
<stop offset="1" stop-opacity="0.02"/>
</linearGradient>
<clipPath id="clip0">
<rect x="35" y="57" width="323" height="163" fill="white"/>
</clipPath>
</defs>
</svg>
