<svg
  width="369"
  height="173"
  viewBox="0 0 369 173"
  fill="none"
  xmlns="http://www.w3.org/2000/svg"
>
  <g clip-path="url(#clip0)">
    <path
      d="M40.8587 171.537L40.2255 171.394C47.2861 139.995 65.03 111.481 90.1885 91.1059C109.209 75.7256 131.831 65.4391 155.925 61.2151C180.019 56.991 204.791 58.9685 227.909 66.9611C251.028 74.9538 271.732 88.6987 288.072 106.902C304.412 125.105 315.85 147.167 321.31 171.011L320.677 171.155C305.731 105.53 248.216 59.697 180.811 59.697C114.289 59.697 55.4309 106.732 40.8587 171.537Z"
      fill="#3F3D56"
    />
    <path d="M95.753 57.5835H92.8638V171.708H95.753V57.5835Z" fill="#3F3D56" />
    <path
      d="M122.417 72.1273C122.601 112.034 94.5249 144.515 94.5249 144.515C94.5249 144.515 66.1503 112.294 65.9664 72.3875C65.7824 32.4808 93.8589 0 93.8589 0C93.8589 0 122.234 32.2207 122.417 72.1273Z"
      fill="#6C63FF"
    />
    <path d="M296.79 124.46H73.1835V171.843H296.79V124.46Z" fill="#F2F2F2" />
    <path
      d="M66.0435 129.653L90.3838 78.7004H284.782L302.956 129.653H66.0435Z"
      fill="#3F3D56"
    />
    <path d="M216.954 81.946H126.732V111.804H216.954V81.946Z" fill="#F2F2F2" />
    <path
      d="M132.574 57.6057L118.294 87.4632H225.392L216.954 57.6057H132.574Z"
      fill="#3F3D56"
    />
    <path d="M205.92 133.872H134.683V171.843H205.92V133.872Z" fill="#CCCCCC" />
    <path d="M119.917 135.17H81.9459V171.843H119.917V135.17Z" fill="#CCCCCC" />
    <path
      d="M237.887 137.442H218.252V171.843H237.887V137.442Z"
      fill="#3F3D56"
    />
    <path d="M342.063 171.681H0V172.33H342.063V171.681Z" fill="#3F3D56" />
    <path d="M60.2926 96.407H58.386V171.717H60.2926V96.407Z" fill="#3F3D56" />
    <path
      d="M77.8883 106.004C78.0096 132.339 59.4822 153.772 59.4822 153.772C59.4822 153.772 40.7579 132.51 40.6366 106.176C40.5152 79.8421 59.0427 58.4082 59.0427 58.4082C59.0427 58.4082 77.7669 79.6704 77.8883 106.004Z"
      fill="#6C63FF"
    />
    <path
      opacity="0.1"
      d="M77.8883 106.004C78.0096 132.339 59.4822 153.772 59.4822 153.772C59.4822 153.772 40.7579 132.51 40.6366 106.176C40.5152 79.8421 59.0427 58.4082 59.0427 58.4082C59.0427 58.4082 77.7669 79.6704 77.8883 106.004Z"
      fill="black"
    />
    <path d="M35.5069 96.407H33.6003V171.717H35.5069V96.407Z" fill="#3F3D56" />
    <path
      d="M53.1026 106.004C53.224 132.339 34.6965 153.772 34.6965 153.772C34.6965 153.772 15.9723 132.51 15.8509 106.176C15.7296 79.8421 34.257 58.4082 34.257 58.4082C34.257 58.4082 52.9812 79.6704 53.1026 106.004Z"
      fill="#6C63FF"
    />
    <path
      d="M268.718 139.389H259.144V148.314H268.718V139.389Z"
      fill="#3F3D56"
    />
    <path
      d="M281.537 139.389H271.963V148.314H281.537V139.389Z"
      fill="#3F3D56"
    />
    <path
      d="M268.718 151.559H259.144V160.809H268.718V151.559Z"
      fill="#3F3D56"
    />
    <path
      d="M281.537 151.559H271.963V160.809H281.537V151.559Z"
      fill="#3F3D56"
    />
    <path
      d="M142.501 90.1157H135.008V97.1003H142.501V90.1157Z"
      fill="#3F3D56"
    />
    <path d="M152.533 90.1157H145.04V97.1003H152.533V90.1157Z" fill="#3F3D56" />
    <path
      d="M142.501 99.6401H135.008V106.879H142.501V99.6401Z"
      fill="#3F3D56"
    />
    <path d="M152.533 99.6401H145.04V106.879H152.533V99.6401Z" fill="#3F3D56" />
    <path
      d="M198.646 90.1157H191.153V97.1003H198.646V90.1157Z"
      fill="#3F3D56"
    />
    <path
      d="M208.678 90.1157H201.185V97.1003H208.678V90.1157Z"
      fill="#3F3D56"
    />
    <path
      d="M198.646 99.6401H191.153V106.879H198.646V99.6401Z"
      fill="#3F3D56"
    />
    <path
      d="M208.678 99.6401H201.185V106.879H208.678V99.6401Z"
      fill="#3F3D56"
    />
    <path
      d="M170.735 90.1157H163.243V97.1003H170.735V90.1157Z"
      fill="#3F3D56"
    />
    <path
      d="M180.768 90.1157H173.275V97.1003H180.768V90.1157Z"
      fill="#3F3D56"
    />
    <path
      d="M170.735 99.6401H163.243V106.879H170.735V99.6401Z"
      fill="#3F3D56"
    />
    <path
      d="M180.768 99.6401H173.275V106.879H180.768V99.6401Z"
      fill="#3F3D56"
    />
    <path
      d="M227.351 140.927H222.633V145.325H227.351V140.927Z"
      fill="#F2F2F2"
    />
    <path d="M233.668 140.927H228.95V145.325H233.668V140.927Z" fill="#F2F2F2" />
    <path
      d="M227.351 146.924H222.633V151.482H227.351V146.924Z"
      fill="#F2F2F2"
    />
    <path d="M233.668 146.924H228.95V151.482H233.668V146.924Z" fill="#F2F2F2" />
    <path
      d="M235.29 158.375C236.007 158.375 236.588 157.793 236.588 157.076C236.588 156.36 236.007 155.778 235.29 155.778C234.573 155.778 233.992 156.36 233.992 157.076C233.992 157.793 234.573 158.375 235.29 158.375Z"
      fill="#F2F2F2"
    />
    <path
      d="M206.082 137.929H134.683V138.578H206.082V137.929Z"
      fill="#F2F2F2"
    />
    <path d="M206.082 140.85H134.683V141.499H206.082V140.85Z" fill="#F2F2F2" />
    <path d="M206.082 143.771H134.683V144.42H206.082V143.771Z" fill="#F2F2F2" />
    <path d="M206.082 146.691H134.683V147.34H206.082V146.691Z" fill="#F2F2F2" />
    <path
      d="M206.082 149.612H134.683V150.261H206.082V149.612Z"
      fill="#F2F2F2"
    />
    <path
      d="M206.082 152.533H134.683V153.182H206.082V152.533Z"
      fill="#F2F2F2"
    />
    <path
      d="M206.082 155.454H134.683V156.103H206.082V155.454Z"
      fill="#F2F2F2"
    />
    <path
      d="M206.082 158.375H134.683V159.024H206.082V158.375Z"
      fill="#F2F2F2"
    />
    <path
      d="M206.082 161.295H134.683V161.944H206.082V161.295Z"
      fill="#F2F2F2"
    />
    <path
      d="M206.082 164.216H134.683V164.865H206.082V164.216Z"
      fill="#F2F2F2"
    />
    <path
      d="M206.082 167.137H134.683V167.786H206.082V167.137Z"
      fill="#F2F2F2"
    />
    <path
      d="M119.917 137.929H81.9459V138.578H119.917V137.929Z"
      fill="#F2F2F2"
    />
    <path d="M119.917 140.85H81.9459V141.499H119.917V140.85Z" fill="#F2F2F2" />
    <path d="M119.917 143.771H81.9459V144.42H119.917V143.771Z" fill="#F2F2F2" />
    <path d="M119.917 146.691H81.9459V147.34H119.917V146.691Z" fill="#F2F2F2" />
    <path
      d="M119.917 149.612H81.9459V150.261H119.917V149.612Z"
      fill="#F2F2F2"
    />
    <path
      d="M119.917 152.533H81.9459V153.182H119.917V152.533Z"
      fill="#F2F2F2"
    />
    <path
      d="M119.917 155.454H81.9459V156.103H119.917V155.454Z"
      fill="#F2F2F2"
    />
    <path
      d="M119.917 158.375H81.9459V159.024H119.917V158.375Z"
      fill="#F2F2F2"
    />
    <path
      d="M119.917 161.295H81.9459V161.944H119.917V161.295Z"
      fill="#F2F2F2"
    />
    <path
      d="M119.917 164.216H81.9459V164.865H119.917V164.216Z"
      fill="#F2F2F2"
    />
    <path
      d="M119.917 167.137H81.9459V167.786H119.917V167.137Z"
      fill="#F2F2F2"
    />
    <path
      fill-rule="evenodd"
      clip-rule="evenodd"
      d="M337.502 12C337.502 12.34 337.472 12.66 337.432 12.98L339.542 14.63C339.732 14.78 339.782 15.05 339.662 15.27L337.662 18.73C337.542 18.95 337.282 19.04 337.052 18.95L334.562 17.95C334.042 18.34 333.482 18.68 332.872 18.93L332.492 21.58C332.462 21.82 332.252 22 332.002 22H328.002C327.752 22 327.542 21.82 327.512 21.58L327.132 18.93C326.522 18.68 325.962 18.35 325.442 17.95L322.952 18.95C322.732 19.03 322.462 18.95 322.342 18.73L320.342 15.27C320.222 15.05 320.272 14.78 320.462 14.63L322.572 12.98C322.532 12.66 322.502 12.33 322.502 12C322.502 11.67 322.532 11.34 322.572 11.02L320.462 9.37C320.272 9.22 320.212 8.95 320.342 8.73L322.342 5.27C322.462 5.05 322.722 4.96 322.952 5.05L325.442 6.05C325.962 5.66 326.522 5.32 327.132 5.07L327.512 2.42C327.542 2.18 327.752 2 328.002 2H332.002C332.252 2 332.462 2.18 332.492 2.42L332.872 5.07C333.482 5.32 334.042 5.65 334.562 6.05L337.052 5.05C337.272 4.97 337.542 5.05 337.662 5.27L339.662 8.73C339.782 8.95 339.732 9.22 339.542 9.37L337.432 11.02C337.472 11.34 337.502 11.66 337.502 12ZM326.502 12C326.502 13.93 328.072 15.5 330.002 15.5C331.932 15.5 333.502 13.93 333.502 12C333.502 10.07 331.932 8.5 330.002 8.5C328.072 8.5 326.502 10.07 326.502 12Z"
      fill="black"
      fill-opacity="0.54"
    />
  </g>
  <defs>
    <clipPath id="clip0">
      <rect width="369" height="172.384" fill="white" />
    </clipPath>
  </defs>
</svg>