<svg width="316" height="194" viewBox="0 0 316 194" fill="none" xmlns="http://www.w3.org/2000/svg">
<path opacity="0.1" d="M316 124.607C316.005 129.863 315.368 135.101 314.103 140.203C313.677 141.922 313.183 143.606 312.62 145.254C311.93 147.287 311.131 149.283 310.226 151.231C309.77 152.216 309.288 153.182 308.78 154.128C308.789 159.518 307.677 164.852 305.515 169.791C301.608 178.654 294.64 185.82 285.882 189.983C280.406 192.591 274.422 193.962 268.355 194H59.9918C50.7213 194.02 41.6109 191.589 33.5869 186.954L33.4635 186.885C32.3206 186.217 31.2063 185.51 30.1207 184.764C27.6779 183.079 25.383 181.191 23.2605 179.119C20.3878 176.317 17.8565 173.186 15.719 169.791C10.6988 161.835 8.0393 152.621 8.04863 143.218C2.96458 134.314 0 123.648 0 112.187C0 97.7257 4.71113 84.5342 12.4512 74.5483C14.0649 72.462 15.8325 70.4989 17.7392 68.6756C19.6205 66.8712 21.6426 65.2191 23.7864 63.7348C25.5015 62.546 27.2941 61.4724 29.1521 60.5213C29.9275 60.1276 30.7055 59.7554 31.497 59.4099C32.1918 59.102 32.8947 58.8154 33.6057 58.545C34.4589 58.2218 35.3228 57.9246 36.1974 57.6532C37.072 57.3818 37.935 57.1444 38.7864 56.9409C40.0384 56.6356 41.3118 56.3874 42.6068 56.1964C43.6799 56.0384 44.7531 55.9286 45.8262 55.8456C46.6794 55.7813 47.5406 55.7465 48.4071 55.7358H48.8766C49.8317 55.7358 50.7815 55.7733 51.7232 55.8376C51.8224 55.6394 51.9298 55.4386 52.029 55.2431C52.4046 54.5281 52.7936 53.8157 53.1853 53.1195C53.1845 53.1133 53.1845 53.1069 53.1853 53.1007C53.2524 52.9775 53.3195 52.857 53.3892 52.7392C53.7058 52.1688 54.0358 51.6038 54.3739 51.0441C54.5295 50.7763 54.6824 50.5246 54.8407 50.2728C54.8742 50.2103 54.9109 50.1495 54.9507 50.0907C55.1117 49.8229 55.2753 49.5552 55.4416 49.2874C56.2698 47.9662 57.131 46.6683 58.0253 45.3937L58.2533 45.0669C58.3928 44.8688 58.5216 44.676 58.6772 44.4778C59.0474 43.961 59.4284 43.4414 59.812 42.9326C60.0803 42.5684 60.3486 42.2069 60.6384 41.8615C61.3359 40.9688 62.0514 40.0762 62.7847 39.1835C63.518 38.2909 64.2799 37.4099 65.0705 36.5404C65.1778 36.4199 65.2851 36.3021 65.3978 36.1843L66.5434 34.9363C66.5997 34.8774 66.648 34.8239 66.7017 34.7703C66.8385 34.623 66.97 34.4757 67.1175 34.3338C67.7319 33.6831 68.3624 33.0457 68.9955 32.4111C72.2178 29.2076 75.6506 26.2222 79.271 23.4748C79.4131 23.3623 79.558 23.2552 79.7002 23.1481C80.3817 22.6366 81.0738 22.1305 81.766 21.6324C85.5733 18.9061 89.5532 16.4284 93.6807 14.2145C93.9651 14.0512 94.2548 13.8986 94.5473 13.7486C98.2476 11.7945 102.053 10.0459 105.947 8.51056C108.069 7.67237 110.239 6.88506 112.423 6.1647C113.877 5.68803 115.337 5.23546 116.815 4.80967C119.126 4.14554 121.453 3.55015 123.796 3.02349C130.699 1.47748 137.721 0.522457 144.787 0.168818C146.933 0.0599154 149.104 0.0036797 151.298 0.000109127C161.887 -0.0138841 172.436 1.31793 182.688 3.96344C182.794 4.12334 182.939 4.25369 183.109 4.34223C183.28 4.43077 183.47 4.47459 183.662 4.46957H184.563C184.955 4.57669 185.344 4.6838 185.736 4.79628C187.923 5.4247 190.079 6.11114 192.204 6.8556L192.741 7.04841C197.985 8.90983 203.088 11.1473 208.009 13.7432C212.445 16.0777 216.716 18.7118 220.793 21.6271C221.42 22.0769 222.039 22.5304 222.649 22.9874C223.39 22.5143 224.143 22.0609 224.908 21.6271C227.865 19.9465 231.004 18.6104 234.266 17.645C241.085 15.6307 248.301 15.349 255.257 16.8255C264.177 18.7135 272.253 23.3998 278.775 30.0652C281.431 32.7924 283.794 35.7882 285.828 39.0041C285.976 39.2344 286.123 39.4674 286.266 39.7031C288.014 42.5494 289.516 45.5389 290.757 48.6393C290.802 48.7545 290.848 48.8616 290.888 48.974C292.034 51.8772 292.957 54.8627 293.652 57.9049C293.684 58.0602 293.721 58.2129 293.754 58.3682C294.403 61.3124 294.844 64.2985 295.074 67.3045C295.074 67.4116 295.074 67.5214 295.095 67.6338C295.208 69.1888 295.265 70.7599 295.267 72.347C295.267 73.7663 295.218 75.1749 295.13 76.5728C295.13 76.7254 295.108 76.8834 295.095 77.0414C295.071 77.4458 295.036 77.8448 295.001 78.2518C297.05 79.9016 298.968 81.7075 300.737 83.6532C301.519 84.5048 302.275 85.3885 303.007 86.3044C305.235 89.0918 307.193 92.084 308.855 95.2406C313.392 103.789 316 113.844 316 124.607Z" fill="#6C63FF"/>
<g clip-path="url(#clip0)">
<path d="M232.292 48.502H232.292C226.728 48.502 222.217 53.5077 222.217 59.6827V67.528H224.63L226.027 64.6212L225.678 67.528H241.187L242.456 64.8855L242.139 67.528H243.885V61.368C243.885 54.2623 238.695 48.502 232.292 48.502Z" fill="#2F2E41"/>
<path d="M172.908 181.152C233.28 181.152 282.221 177.867 282.221 173.815C282.221 169.762 233.28 166.477 172.908 166.477C112.536 166.477 63.5952 169.762 63.5952 173.815C63.5952 177.867 112.536 181.152 172.908 181.152Z" fill="#3F3D56"/>
<path d="M99.2668 171.198C99.2187 171.12 98.0843 169.226 97.691 165.293C97.3303 161.684 97.5623 155.602 100.717 147.118C106.692 131.045 99.3395 118.076 99.2643 117.947L99.6271 117.736C99.6461 117.769 101.544 121.076 102.664 126.341C104.145 133.321 103.606 140.579 101.11 147.264C95.1441 163.309 99.5792 170.905 99.6246 170.98L99.2668 171.198Z" fill="#3F3D56"/>
<path d="M96.9301 117.003C98.4352 117.003 99.6554 115.783 99.6554 114.278C99.6554 112.773 98.4352 111.553 96.9301 111.553C95.425 111.553 94.2048 112.773 94.2048 114.278C94.2048 115.783 95.425 117.003 96.9301 117.003Z" fill="#6C63FF"/>
<path d="M105.525 127.066C107.03 127.066 108.251 125.845 108.251 124.34C108.251 122.835 107.03 121.615 105.525 121.615C104.02 121.615 102.8 122.835 102.8 124.34C102.8 125.845 104.02 127.066 105.525 127.066Z" fill="#3F3D56"/>
<path d="M99.6554 133.774C101.161 133.774 102.381 132.554 102.381 131.049C102.381 129.544 101.161 128.323 99.6554 128.323C98.1503 128.323 96.9302 129.544 96.9302 131.049C96.9302 132.554 98.1503 133.774 99.6554 133.774Z" fill="#6C63FF"/>
<path d="M106.783 139.434C108.288 139.434 109.508 138.214 109.508 136.709C109.508 135.204 108.288 133.984 106.783 133.984C105.278 133.984 104.058 135.204 104.058 136.709C104.058 138.214 105.278 139.434 106.783 139.434Z" fill="#6C63FF"/>
<path d="M97.559 148.239C99.0641 148.239 100.284 147.019 100.284 145.514C100.284 144.008 99.0641 142.788 97.559 142.788C96.0539 142.788 94.8337 144.008 94.8337 145.514C94.8337 147.019 96.0539 148.239 97.559 148.239Z" fill="#3F3D56"/>
<path d="M100.913 171.299C100.913 171.299 98.1881 164.59 106.364 159.559L100.913 171.299Z" fill="#3F3D56"/>
<path d="M97.5616 171.177C97.5616 171.177 96.3213 164.043 86.7217 164.104L97.5616 171.177Z" fill="#3F3D56"/>
<path d="M227.429 62.6025C227.429 62.6025 230.573 69.9398 226.38 71.4073L230.573 85.2432L237.701 84.824L239.587 80.212L239.168 73.294L238.539 68.682C238.539 68.682 234.137 69.7302 234.556 61.9736L227.429 62.6025Z" fill="#FFB8B8"/>
<path d="M225.751 71.1978C225.751 71.1978 218.833 70.5689 219.462 75.6001C220.091 80.6314 220.72 81.6796 220.72 81.6796L221.349 89.2265L217.576 91.5325H214.012C214.012 91.5325 203.111 94.0481 208.561 96.7734C214.012 99.4986 215.899 94.677 215.899 94.677C215.899 94.677 225.961 94.677 226.59 92.9999C227.219 91.3228 225.751 71.1978 225.751 71.1978Z" fill="#FFB8B8"/>
<path d="M239.168 69.1012C239.168 69.1012 245.667 66.7952 246.086 71.8265C246.505 76.8577 246.505 77.277 246.505 77.277L247.763 84.4046C247.763 84.4046 250.279 90.6937 250.279 92.5804C250.279 94.4671 252.166 100.337 252.166 100.337C252.166 100.337 254.681 108.513 251.956 108.303C249.231 108.093 248.811 99.4984 248.811 99.4984L243.151 88.1781L241.474 81.2601L239.168 69.1012Z" fill="#FFB8B8"/>
<path d="M226.8 70.3592H225.123L224.913 79.1639C224.913 79.1639 222.188 82.9374 225.542 86.2916L226.38 91.7421L241.684 91.1132L242.732 85.453C242.732 85.453 244.828 80.841 241.894 76.6483L239.168 68.0532H237.701C237.701 68.0532 241.1 80.5849 233.927 80.841C228.058 81.0507 226.8 70.3592 226.8 70.3592Z" fill="#6C63FF"/>
<path d="M227.219 90.6937L225.961 94.8864C225.961 94.8864 199.757 168.678 207.723 170.565C215.689 172.452 226.8 174.967 227.848 173.081C228.896 171.194 234.347 116.06 234.347 116.06C234.347 116.06 233.508 173.71 236.233 173.71C238.959 173.71 256.987 174.129 258.036 171.404C259.084 168.678 248.602 95.7249 242.522 94.0479L240.845 90.2744L227.219 90.6937Z" fill="#2F2E41"/>
<path d="M242.313 88.5974L225.751 89.2263C225.751 89.2263 224.996 94.8865 225.751 94.8865C225.961 94.8865 243.151 96.3539 242.942 93.8383C242.732 91.3227 242.313 88.5974 242.313 88.5974Z" fill="#3F3D56"/>
<path d="M156.676 128.533C156.677 132.992 155.42 137.36 153.049 141.136C150.679 144.912 147.291 147.942 143.274 149.878C143.272 149.878 143.272 149.878 143.27 149.88C142.55 150.228 141.813 150.538 141.061 150.809C140.941 150.855 140.82 150.897 140.696 150.937C140.444 151.027 140.189 151.109 139.931 151.186C139.4 151.35 138.862 151.495 138.317 151.62H138.314L138.3 151.625L138.266 151.631C138.195 151.648 138.122 151.664 138.048 151.679C137.642 151.769 137.231 151.847 136.816 151.912C135.55 152.119 134.27 152.223 132.988 152.222C132.3 152.222 131.617 152.193 130.944 152.134C130.907 152.133 130.871 152.129 130.835 152.123C128.989 151.957 127.17 151.574 125.413 150.985C125.154 150.897 124.894 150.805 124.638 150.706C120.592 149.183 117.041 146.582 114.367 143.185C111.694 139.788 110.002 135.724 109.473 131.433C108.944 127.143 109.599 122.79 111.367 118.845C113.135 114.9 115.949 111.515 119.504 109.055C123.058 106.595 127.218 105.154 131.533 104.889C135.848 104.624 140.153 105.544 143.982 107.551C147.811 109.557 151.018 112.573 153.255 116.271C155.493 119.97 156.676 124.21 156.676 128.533Z" fill="#3F3D56"/>
<path d="M130.173 128.799C130.173 128.799 135.729 126.378 138.339 128.935C140.949 131.493 131.352 130.651 130.173 128.799Z" fill="#3F3D56"/>
<path d="M139.767 117.317C137.9 114.162 134.206 114.015 134.206 114.015C134.206 114.015 130.606 113.555 128.297 118.36C126.145 122.838 123.174 127.163 127.819 128.211L128.658 125.6L129.177 128.405C129.839 128.453 130.502 128.464 131.165 128.439C136.139 128.279 140.876 128.486 140.723 126.701C140.52 124.329 141.564 120.353 139.767 117.317Z" fill="#2F2E41"/>
<path d="M140.696 150.937C140.82 150.897 140.941 150.855 141.061 150.809L141.033 150.771L140.696 150.752L138.512 150.635H138.509L138.143 150.616L136.405 150.522L132.621 150.316L130.594 150.207L130.491 150.201H130.466L129.038 150.124L128.573 150.098L128.13 151.721C129.023 151.909 129.926 152.043 130.835 152.123C130.871 152.129 130.907 152.133 130.944 152.134C131.617 152.193 132.3 152.222 132.988 152.222C134.27 152.223 135.55 152.119 136.816 151.912C137.231 151.847 137.642 151.769 138.048 151.679C138.122 151.664 138.195 151.648 138.266 151.631L138.3 151.625L138.314 151.62H138.317C138.862 151.495 139.4 151.35 139.931 151.186L140.696 150.937Z" fill="#2F2E41"/>
<path d="M131.099 124.169C131.099 124.169 131.941 129.725 130.257 130.399C128.573 131.072 133.625 133.934 133.625 133.934H136.487L138.339 130.062C138.339 130.062 136.655 127.031 137.665 124.169C138.676 121.307 131.099 124.169 131.099 124.169Z" fill="#A0616A"/>
<path d="M140.696 150.937V131.24C140.696 131.24 140.482 129.217 138.786 129.743C138.613 129.798 138.444 129.868 138.283 129.952C138.002 130.104 137.734 130.279 137.482 130.474C137.386 130.548 137.287 130.627 137.185 130.713C137.176 130.72 137.168 130.728 137.159 130.734C133.96 133.428 132.447 131.577 132.109 131.24C131.986 131.118 131.663 130.772 131.3 130.382V130.38C131.143 130.212 130.979 130.036 130.824 129.864C130.344 129.347 129.921 128.883 129.921 128.883L128.237 130.229L128.648 140.434L128.745 142.841V142.843L128.776 143.591V143.596L129.038 150.124L129.078 151.109C129.648 151.29 130.226 151.443 130.812 151.566C130.984 151.602 131.166 151.637 131.352 151.671C132.812 151.935 134.648 152.071 135.814 151.444C136.049 151.318 136.296 151.215 136.551 151.136C137.058 150.984 137.586 150.911 138.115 150.92C138.229 150.922 138.34 150.927 138.451 150.933H138.453C138.953 150.968 139.448 151.053 139.931 151.186L140.696 150.937Z" fill="#3F3D56"/>
<path d="M132.621 150.316C132.24 150.805 131.815 151.258 131.352 151.671C131.21 151.801 131.067 151.926 130.923 152.05C130.893 152.075 130.864 152.098 130.835 152.123C128.989 151.956 127.17 151.574 125.413 150.985C125.153 150.897 124.894 150.805 124.638 150.706C124.8 150.296 124.927 149.873 125.017 149.442C126.177 144.008 122.806 135.761 122.512 134.439C122.405 133.963 122.799 133.302 123.43 132.6C124.808 131.072 127.313 129.344 128.237 128.883C128.938 128.57 129.723 128.497 130.47 128.678H130.472C130.706 128.726 130.936 128.794 131.157 128.883V128.885C131.16 128.917 131.183 129.156 131.222 129.564C131.243 129.789 131.269 130.061 131.3 130.38V130.382C131.357 130.977 131.428 131.72 131.512 132.566V132.569C132.017 137.786 132.931 146.868 133.287 148.413C133.419 148.985 133.126 149.648 132.621 150.316Z" fill="#D0CDE1"/>
<path d="M140.696 150.937C140.82 150.897 140.941 150.855 141.061 150.809C141.813 150.538 142.55 150.228 143.27 149.88C142.193 146.732 145.377 136.722 146.289 133.623V133.619C146.396 133.256 146.471 132.988 146.505 132.839C146.842 131.323 141.706 129.894 141.539 129.556C141.409 129.3 139.323 129.043 138.34 128.936C138.036 128.902 137.836 128.883 137.836 128.883C137.577 129.085 137.377 129.663 137.222 130.504C137.208 130.571 137.195 130.642 137.185 130.713C137.073 131.363 136.987 132.149 136.918 133.032C136.537 137.845 136.667 145.451 136.319 148.583C136.248 149.23 136.277 149.884 136.405 150.522C136.443 150.729 136.492 150.934 136.551 151.136C136.625 151.4 136.713 151.659 136.816 151.912C137.231 151.847 137.642 151.769 138.048 151.679C138.122 151.664 138.195 151.648 138.266 151.631L138.3 151.625L138.314 151.62H138.317C138.862 151.495 139.4 151.35 139.931 151.186L140.696 150.937Z" fill="#D0CDE1"/>
<path d="M139.433 122.569C139.619 122.569 139.77 122.268 139.77 121.896C139.77 121.524 139.619 121.222 139.433 121.222C139.247 121.222 139.096 121.524 139.096 121.896C139.096 122.268 139.247 122.569 139.433 122.569Z" fill="#A0616A"/>
<path d="M129.5 122.569C129.686 122.569 129.836 122.268 129.836 121.896C129.836 121.524 129.686 121.222 129.5 121.222C129.314 121.222 129.163 121.524 129.163 121.896C129.163 122.268 129.314 122.569 129.5 122.569Z" fill="#A0616A"/>
<path d="M140.696 150.937C140.82 150.897 140.941 150.855 141.061 150.809C141.813 150.538 142.55 150.228 143.27 149.88C143.27 149.881 143.27 149.883 143.271 149.884C143.271 149.885 143.272 149.886 143.272 149.887C143.272 149.884 143.273 149.881 143.274 149.878C144.532 143.237 145.866 136.132 146.289 133.623V133.619C146.362 133.183 146.409 132.887 146.421 132.755C146.589 131.072 142.379 131.072 142.379 131.072L141.708 134.462L140.696 139.583L140.348 141.342L138.509 150.635L138.451 150.933L138.314 151.62H138.317C138.862 151.495 139.4 151.35 139.931 151.186L140.696 150.937Z" fill="#D0CDE1"/>
<path d="M130.835 152.123C128.989 151.956 127.17 151.574 125.413 150.985C125.281 150.476 125.149 149.96 125.017 149.442C123.38 143.017 121.839 136.218 121.839 134.944C121.839 133.889 122.575 133.128 123.43 132.6C124.244 132.124 125.128 131.779 126.049 131.577C126.049 131.577 126.585 133.81 127.357 137.03C127.77 138.749 128.248 140.748 128.745 142.841V142.843C129.323 145.27 129.929 147.819 130.491 150.201C130.581 150.587 130.67 150.967 130.759 151.341V151.35C130.76 151.352 130.761 151.355 130.761 151.358C130.778 151.427 130.795 151.497 130.812 151.566C130.849 151.729 130.887 151.891 130.923 152.05C130.931 152.077 130.937 152.104 130.944 152.134C130.907 152.132 130.871 152.129 130.835 152.123Z" fill="#D0CDE1"/>
<path opacity="0.2" d="M126.974 136.544L130.762 151.359C130.762 151.359 128.994 138.396 126.974 136.544Z" fill="black"/>
<path opacity="0.2" d="M136.816 151.912L138.048 151.673V151.679C137.642 151.769 137.231 151.847 136.816 151.912Z" fill="black"/>
<path opacity="0.2" d="M141.708 134.462L140.696 139.583L140.348 141.342L138.511 150.635H138.509L138.453 150.933H138.451L138.316 151.62H138.314L138.3 151.625L138.266 151.631L138.048 151.673C138.067 151.438 138.09 151.186 138.115 150.92C138.124 150.822 138.132 150.721 138.142 150.616C138.537 146.333 139.377 138.935 140.696 135.837C141.006 135.107 141.344 134.617 141.708 134.462Z" fill="black"/>
<path d="M134.466 126.863C137.163 126.863 139.349 124.677 139.349 121.98C139.349 119.283 137.163 117.097 134.466 117.097C131.77 117.097 129.584 119.283 129.584 121.98C129.584 124.677 131.77 126.863 134.466 126.863Z" fill="#A0616A"/>
<path d="M138.941 117.013L135.292 115.101L130.252 115.883L129.209 120.489L131.805 120.389L132.53 118.697V120.361L133.728 120.315L134.423 117.621L134.857 120.489L139.115 120.402L138.941 117.013Z" fill="#2F2E41"/>
<path d="M96.9301 98.5551C96.9301 102.316 96.0346 106.023 94.3176 109.369C92.6006 112.715 90.1115 115.604 87.0562 117.798C86.2219 118.4 85.3486 118.946 84.4421 119.433C79.4765 122.091 73.728 122.898 68.2225 121.709C67.0504 121.458 65.8996 121.116 64.7803 120.686C60.7471 119.145 57.212 116.53 54.5569 113.125C51.9018 109.72 50.2277 105.654 49.7156 101.367C49.2035 97.0797 49.8728 92.7339 51.6512 88.7994C53.4296 84.8648 56.2494 81.4911 59.806 79.0428C63.3626 76.5946 67.5206 75.1648 71.8308 74.9081C76.1409 74.6514 80.4393 75.5775 84.2613 77.5864C88.0833 79.5952 91.2837 82.6104 93.5165 86.306C95.7493 90.0017 96.9297 94.2373 96.9301 98.5551Z" fill="#3F3D56"/>
<path d="M71.7472 97.0103C74.7562 97.0103 77.1954 94.5711 77.1954 91.5622C77.1954 88.5532 74.7562 86.114 71.7472 86.114C68.7383 86.114 66.2991 88.5532 66.2991 91.5622C66.2991 94.5711 68.7383 97.0103 71.7472 97.0103Z" fill="#FFB8B8"/>
<path d="M69.6191 95.7336C69.6191 95.7336 70.3002 98.9684 70.3002 99.3089C70.3002 99.6494 73.535 101.182 73.535 101.182L76.4293 100.671L77.4509 97.6064C77.4509 97.6064 75.7483 95.0525 75.7483 94.031L69.6191 95.7336Z" fill="#FFB8B8"/>
<path d="M73.2414 122.244C71.5543 122.245 69.8718 122.066 68.2227 121.709C68.141 120.043 68.0865 118.206 68.0865 118.206L66.4262 113.389L62.9797 103.396L70.0759 97.9786C70.0759 97.9786 71.8327 100.84 74.386 99.989C75.0961 99.7735 75.72 99.3393 76.1687 98.7483C76.6175 98.1573 76.8681 97.4396 76.8849 96.6978L85.2829 99.6494L83.8322 111.42L83.7505 112.079L84.4423 119.433C80.9995 121.284 77.1504 122.25 73.2414 122.244Z" fill="#D0CDE1"/>
<path d="M67.0225 87.1727C67.0225 87.1727 68.7523 83.4248 72.0677 84.2897C75.3831 85.1546 77.257 86.452 77.4012 87.7493C77.5453 89.0466 77.3291 90.9926 77.3291 90.9926C77.3291 90.9926 76.9687 88.3259 74.6624 88.9025C72.356 89.4791 68.7523 89.0466 68.7523 89.0466L68.1757 94.2359C68.1757 94.2359 67.5271 93.299 66.8063 93.8756C66.0856 94.4522 64.7162 88.3259 67.0225 87.1727Z" fill="#2F2E41"/>
<path d="M59.8394 118.089L60.9358 108.844C60.7659 105.268 62.9797 103.396 62.9797 103.396H65.5331L67.4051 109.695L66.4261 113.389L65.1935 118.037L64.8518 118.548C64.8518 118.548 65.1935 119.058 65.0216 119.23C64.8518 119.399 64.6819 120.081 64.6819 120.081C64.6819 120.081 64.7176 120.324 64.7805 120.687C63.036 120.02 61.3772 119.148 59.8394 118.089Z" fill="#D0CDE1"/>
<path d="M91.2427 113.953C90.0068 115.398 88.6012 116.689 87.0563 117.798C86.8237 117.385 86.6286 116.952 86.4735 116.504L83.8321 111.421L82.0481 107.991L82.3877 99.1379L85.2828 99.6495C85.2828 99.6495 86.985 101.352 87.6663 103.396L89.029 109.523L91.2406 113.951L91.2427 113.953Z" fill="#D0CDE1"/>
<path d="M212.649 84.9289C212.651 88.9957 211.606 92.9945 209.613 96.5398C207.62 100.085 204.748 103.057 201.272 105.169C200.853 105.425 200.425 105.666 199.989 105.897C199.339 106.24 198.671 106.555 197.987 106.834V106.836C197.769 106.926 197.551 107.012 197.331 107.094C197.228 107.134 197.124 107.173 197.019 107.211C194.434 108.143 191.708 108.619 188.96 108.618C187.156 108.619 185.358 108.415 183.6 108.01C182.687 107.798 181.787 107.532 180.906 107.213H180.904C179.786 106.808 178.699 106.319 177.655 105.75C177.382 105.603 177.114 105.45 176.85 105.291C176.665 105.182 176.485 105.071 176.305 104.957C172.823 102.758 169.975 99.6881 168.042 96.0518C166.108 92.4155 165.156 88.3379 165.279 84.2214C165.403 80.1049 166.597 76.0916 168.744 72.5774C170.892 69.0632 173.918 66.1696 177.525 64.1819C181.132 62.1942 185.195 61.1811 189.313 61.2426C193.431 61.3041 197.461 62.4381 201.007 64.5326C204.553 66.6271 207.492 69.6099 209.534 73.1866C211.575 76.7633 212.649 80.8105 212.649 84.9289Z" fill="#3F3D56"/>
<path d="M186.23 81.4707C186.23 81.4707 186.37 85.1166 185.529 85.958C184.687 86.7994 189.736 89.7441 189.736 89.7441L192.68 85.1166C192.68 85.1166 191.558 83.1534 191.839 81.4707L186.23 81.4707Z" fill="#A0616A"/>
<path d="M188.684 83.5039C191.472 83.5039 193.732 81.2437 193.732 78.4557C193.732 75.6676 191.472 73.4075 188.684 73.4075C185.896 73.4075 183.635 75.6676 183.635 78.4557C183.635 81.2437 185.896 83.5039 188.684 83.5039Z" fill="#A0616A"/>
<path d="M197.239 105.924C197.27 106.314 197.301 106.704 197.331 107.094C197.228 107.133 197.124 107.173 197.019 107.211C194.434 108.143 191.708 108.618 188.96 108.618C187.156 108.619 185.358 108.415 183.6 108.01C182.687 107.798 181.787 107.532 180.906 107.213L180.904 107.232C180.902 107.226 180.902 107.219 180.904 107.213C180.936 106.785 181.016 106.363 181.143 105.953V105.951C181.26 105.519 181.42 105.02 181.602 104.469C181.799 103.88 181.812 102.593 181.77 101.383C181.766 101.291 181.764 101.197 181.759 101.106C181.743 100.714 181.722 100.339 181.701 100.006C181.653 99.2532 181.602 98.7186 181.602 98.7186L178.516 90.4443L185.969 85.0021C186.409 86.4298 187.353 86.3795 187.353 86.3795C191.352 86.6541 192.088 83.8911 192.111 83.8009V83.7988L199.27 88.4821L196.327 95.6328C196.327 95.6328 196.447 96.8445 196.616 98.6935C196.641 98.966 196.667 99.2532 196.696 99.553C196.86 101.368 197.059 103.63 197.239 105.924Z" fill="#D0CDE1"/>
<path d="M181.952 100.05L181.805 101.115L181.77 101.383L181.147 105.932L181.143 105.951V105.953L180.906 107.213L180.904 107.232C180.902 107.226 180.902 107.219 180.904 107.213C179.785 106.808 178.699 106.319 177.655 105.75C177.382 105.603 177.114 105.45 176.85 105.291C177.024 104.748 177.23 104.216 177.466 103.697L177.894 100.368L178.026 99.3496L181.701 100.006L181.952 100.05Z" fill="#A0616A"/>
<path d="M180.551 90.2349L178.517 90.4452C178.517 90.4452 177.185 100.331 177.606 100.331C178.026 100.331 182.794 101.453 182.934 101.173C183.075 100.892 180.551 90.2349 180.551 90.2349Z" fill="#D0CDE1"/>
<path d="M184.789 73.281L183.879 72.9501C183.879 72.9501 185.781 71.0473 188.429 71.2128L187.684 70.4682C187.684 70.4682 189.504 69.8064 191.159 71.5437C192.029 72.457 193.035 73.5305 193.662 74.7397H194.637L194.23 75.5532L195.654 76.3667L194.192 76.2206C194.331 76.9229 194.283 77.6493 194.054 78.3275L193.723 79.2375C193.723 79.2375 192.4 76.5902 192.4 76.2593V77.0866C192.4 77.0866 191.49 76.342 191.49 75.8456L190.993 76.4247L190.745 75.5147L187.684 76.4247L188.181 75.6802L186.278 75.9284L187.022 75.0183C187.022 75.0183 184.871 76.0938 184.789 77.0038C184.706 77.9138 183.63 79.072 183.63 79.072L183.134 78.2448C183.134 78.2448 182.39 74.522 184.789 73.281Z" fill="#2F2E41"/>
<path d="M201.272 105.169C200.853 105.425 200.425 105.666 199.989 105.896C199.339 106.24 198.671 106.555 197.987 106.834V106.836C197.769 106.926 197.551 107.012 197.331 107.094C197.228 107.133 197.124 107.173 197.019 107.211L197.239 105.924L196.241 99.5823L196.115 98.7877L196.616 98.6934L201.304 97.8066V103.557C201.304 103.557 201.316 104.18 201.272 105.169Z" fill="#A0616A"/>
<path d="M196.536 88.1313L199.271 88.4819C199.271 88.4819 202.566 98.5082 201.725 98.9289C200.883 99.3496 195.415 99.63 195.415 99.63L196.536 88.1313Z" fill="#D0CDE1"/>
<path d="M88.5447 87.4444C92.3654 87.4444 95.4627 84.3471 95.4627 80.5264C95.4627 76.7057 92.3654 73.6084 88.5447 73.6084C84.724 73.6084 81.6267 76.7057 81.6267 80.5264C81.6267 84.3471 84.724 87.4444 88.5447 87.4444Z" fill="#6C63FF"/>
<path d="M149.339 117.842C153.16 117.842 156.257 114.744 156.257 110.924C156.257 107.103 153.16 104.006 149.339 104.006C145.518 104.006 142.421 107.103 142.421 110.924C142.421 114.744 145.518 117.842 149.339 117.842Z" fill="#6C63FF"/>
<path d="M206.15 75.076C209.971 75.076 213.068 71.9787 213.068 68.158C213.068 64.3373 209.971 61.24 206.15 61.24C202.33 61.24 199.232 64.3373 199.232 68.158C199.232 71.9787 202.33 75.076 206.15 75.076Z" fill="#6C63FF"/>
<path d="M230.669 65.0037C233.922 65.0037 236.559 62.3666 236.559 59.1134C236.559 55.8603 233.922 53.2231 230.669 53.2231C227.416 53.2231 224.778 55.8603 224.778 59.1134C224.778 62.3666 227.416 65.0037 230.669 65.0037Z" fill="#FFB8B8"/>
<path d="M235.156 51.5818C234.671 50.9308 234.043 50.4002 233.32 50.0313C232.597 49.6623 231.798 49.4649 230.987 49.4543H230.789C226.975 49.4543 223.884 52.9053 223.884 57.1622V57.1622H225.162L225.368 55.5914L225.671 57.1622H233.249L233.884 55.8333L233.726 57.1622H235.217C235.912 60.6174 234.913 64.0727 232.218 67.5279H234.758L236.027 64.8701L235.71 67.5279H240.552L241.504 61.4148C241.504 56.8366 238.844 52.9544 235.156 51.5818Z" fill="#2F2E41"/>
<path d="M236.548 52.2256C238.632 52.2256 240.321 50.5362 240.321 48.4522C240.321 46.3681 238.632 44.6787 236.548 44.6787C234.464 44.6787 232.774 46.3681 232.774 48.4522C232.774 50.5362 234.464 52.2256 236.548 52.2256Z" fill="#2F2E41"/>
</g>
<defs>
<clipPath id="clip0">
<rect x="49.5525" y="44.6787" width="232.669" height="136.473" fill="white"/>
</clipPath>
</defs>
</svg>
