<svg width="389" height="239" viewBox="0 0 389 239" fill="none" xmlns="http://www.w3.org/2000/svg">
<path opacity="0.1" d="M389 153.51C389.007 159.986 388.223 166.438 386.665 172.724C386.141 174.842 385.532 176.916 384.839 178.946C383.99 181.452 383.007 183.91 381.893 186.31C381.331 187.524 380.738 188.714 380.113 189.88C380.123 196.52 378.754 203.091 376.093 209.176C371.283 220.094 362.706 228.922 351.924 234.051C345.184 237.264 337.817 238.954 330.348 239H73.8507C62.4386 239.024 51.2236 236.029 41.3459 230.32L41.194 230.234C39.7871 229.412 38.4154 228.541 37.0789 227.621C34.0719 225.546 31.2468 223.22 28.634 220.667C25.0977 217.215 21.9815 213.358 19.3503 209.176C13.1703 199.374 9.89649 188.023 9.90797 176.439C3.64943 165.47 0 152.329 0 138.209C0 120.394 5.79946 104.143 15.3276 91.8404C17.3141 89.2702 19.49 86.8518 21.8372 84.6055C24.1531 82.3826 26.6423 80.3472 29.2813 78.5186C31.3927 77.054 33.5994 75.7315 35.8867 74.5597C36.8411 74.0747 37.7989 73.6162 38.7732 73.1906C39.6286 72.8112 40.4939 72.4582 41.3691 72.125C42.4193 71.7269 43.4828 71.3607 44.5594 71.0264C45.6361 70.6921 46.6984 70.3996 47.7465 70.1488C49.2877 69.7727 50.8554 69.467 52.4495 69.2317C53.7705 69.037 55.0916 68.9018 56.4127 68.7995C57.4629 68.7203 58.523 68.6774 59.5898 68.6642H60.1678C61.3435 68.6642 62.5127 68.7104 63.6719 68.7896C63.7941 68.5454 63.9262 68.298 64.0484 68.0572C64.5108 67.1763 64.9896 66.2988 65.4718 65.441C65.4707 65.4333 65.4707 65.4256 65.4718 65.4179C65.5544 65.2662 65.637 65.1177 65.7228 64.9725C66.1125 64.2698 66.5188 63.5737 66.9349 62.8842C67.1265 62.5543 67.3147 62.2442 67.5096 61.9341C67.5508 61.857 67.596 61.7821 67.645 61.7097C67.8431 61.3798 68.0446 61.0499 68.2494 60.72C69.2688 59.0924 70.3289 57.4935 71.4298 55.9231L71.7106 55.5206C71.8823 55.2765 72.0408 55.039 72.2324 54.7948C72.6881 54.1581 73.1571 53.5181 73.6294 52.8912C73.9597 52.4426 74.2899 51.9972 74.6466 51.5716C75.5053 50.4719 76.386 49.3722 77.2887 48.2725C78.1915 47.1728 79.1294 46.0874 80.1026 45.0163C80.2347 44.8678 80.3668 44.7227 80.5055 44.5775L81.9158 43.0401C81.9851 42.9676 82.0446 42.9016 82.1106 42.8356C82.279 42.6541 82.4409 42.4727 82.6225 42.2978C83.3788 41.4962 84.155 40.711 84.9344 39.9291C88.901 35.9825 93.1268 32.3047 97.5836 28.92C97.7586 28.7814 97.9369 28.6495 98.112 28.5175C98.9509 27.8874 99.8029 27.2639 100.655 26.6502C105.342 23.2916 110.241 20.2391 115.322 17.5117C115.672 17.3105 116.029 17.1224 116.389 16.9377C120.944 14.5304 125.629 12.3761 130.422 10.4847C133.034 9.45204 135.706 8.48211 138.394 7.59465C140.184 7.00741 141.981 6.44987 143.801 5.92531C146.646 5.10714 149.51 4.37364 152.394 3.72481C160.892 1.8202 169.537 0.643645 178.234 0.207977C180.877 0.0738134 183.548 0.00453323 186.25 0.000134439C199.286 -0.0171046 212.27 1.62364 224.891 4.8828C225.021 5.07978 225.2 5.24037 225.41 5.34945C225.619 5.45853 225.854 5.51251 226.09 5.50632H227.2C227.682 5.63829 228.161 5.77025 228.643 5.90881C231.336 6.683 233.99 7.52867 236.606 8.44582L237.266 8.68336C243.722 10.9765 250.003 13.733 256.061 16.9311C261.522 19.8071 266.78 23.0522 271.799 26.6436C272.571 27.1979 273.333 27.7565 274.084 28.3196C274.996 27.7367 275.923 27.1781 276.865 26.6436C280.504 24.5732 284.369 22.9272 288.385 21.7379C296.779 19.2564 305.661 18.9093 314.225 20.7284C325.206 23.0542 335.147 28.8276 343.176 37.0391C346.445 40.3988 349.355 44.0895 351.858 48.0515C352.04 48.3352 352.222 48.6222 352.397 48.9125C354.548 52.4191 356.398 56.1021 357.925 59.9216C357.981 60.0635 358.038 60.1954 358.087 60.334C359.497 63.9106 360.634 67.5886 361.489 71.3365C361.528 71.5278 361.575 71.7159 361.614 71.9072C362.414 75.5343 362.957 79.2131 363.239 82.9163C363.239 83.0483 363.239 83.1835 363.266 83.3221C363.404 85.2378 363.475 87.1733 363.477 89.1285C363.477 90.877 363.418 92.6124 363.309 94.3345C363.309 94.5225 363.282 94.7172 363.266 94.9118C363.236 95.41 363.193 95.9016 363.15 96.403C365.672 98.4354 368.033 100.66 370.211 103.057C371.173 104.106 372.105 105.195 373.005 106.323C375.748 109.757 378.159 113.444 380.205 117.332C385.79 127.863 389 140.251 389 153.51Z" fill="#6C63FF"/>
<g clip-path="url(#clip0)">
<g opacity="0.2">
<path opacity="0.2" d="M171.846 191.363H167.85L169.848 125.413L171.846 191.363Z" fill="#6C63FF"/>
<path opacity="0.2" d="M170.347 141.895L183.338 136.405L170.347 143.399V141.895Z" fill="#6C63FF"/>
<path opacity="0.2" d="M169.167 147.896L165.351 143.399L169.091 150.394L169.167 147.896Z" fill="#6C63FF"/>
</g>
<g opacity="0.2">
<path opacity="0.2" d="M208.685 191.201H206.102L207.394 148.576L208.685 191.201Z" fill="#6C63FF"/>
<path opacity="0.2" d="M207.716 159.229L216.112 155.68L207.716 160.201V159.229Z" fill="#6C63FF"/>
<path opacity="0.2" d="M206.953 163.107L204.487 160.201L206.904 164.722L206.953 163.107Z" fill="#6C63FF"/>
</g>
<path d="M179.3 175.163H178.837V182.106H179.3V175.163Z" fill="#535461"/>
<path d="M179.531 183.031H178.374V191.131H179.531V183.031Z" fill="#535461"/>
<path d="M204.062 183.031H202.905V191.131H204.062V183.031Z" fill="#535461"/>
<path opacity="0.1" d="M179.531 183.031H178.374V191.131H179.531V183.031Z" fill="black"/>
<path opacity="0.1" d="M204.062 183.031H202.905V191.131H204.062V183.031Z" fill="black"/>
<path d="M203.368 182.106H203.831V175.163H203.368V182.106Z" fill="#535461"/>
<path opacity="0.1" d="M179.3 175.163H178.837V182.106H179.3V175.163Z" fill="black"/>
<path opacity="0.1" d="M203.368 182.106H203.831V175.163H203.368V182.106Z" fill="black"/>
<path d="M205.914 174.7H176.754V176.089H205.914V174.7Z" fill="#535461"/>
<path d="M205.914 177.014H176.754V178.403H205.914V177.014Z" fill="#535461"/>
<path d="M205.914 179.329H176.754V180.717H205.914V179.329Z" fill="#535461"/>
<path d="M205.914 181.874H176.754V184.42H205.914V181.874Z" fill="#535461"/>
<path d="M151.644 91.2715H141.23V111.405H151.644V91.2715Z" fill="#E0E0E0"/>
<path d="M162.406 122.167V190.9H68.91V122.167L76.7783 117.33L84.1841 112.775L115.774 93.354L162.406 122.167Z" fill="#EEEEEE"/>
<path opacity="0.1" d="M150.603 190.9V118.61L149.214 119.463V190.9H150.603Z" fill="black"/>
<path d="M126.072 158.847H105.244V190.784H126.072V158.847Z" fill="#6C63FF"/>
<path d="M122.948 175.742C123.459 175.742 123.873 175.327 123.873 174.816C123.873 174.305 123.459 173.89 122.948 173.89C122.436 173.89 122.022 174.305 122.022 174.816C122.022 175.327 122.436 175.742 122.948 175.742Z" fill="#535461"/>
<path opacity="0.1" d="M151.644 91.5027H141.23V92.6598H151.644V91.5027Z" fill="black"/>
<path d="M153.264 90.1143H139.379V92.4285H153.264V90.1143Z" fill="#E0E0E0"/>
<path opacity="0.1" d="M162.406 138.366H68.9099V140.218H162.406V138.366Z" fill="black"/>
<path d="M162.406 138.135H68.9099V139.986H162.406V138.135Z" fill="white"/>
<path opacity="0.1" d="M150.603 90.1143H148.057V111.405H150.603V90.1143Z" fill="black"/>
<path opacity="0.1" d="M146.9 90.23H146.206V111.521H146.9V90.23Z" fill="black"/>
<path opacity="0.1" d="M160.091 119.39V190.9H152.686V117.33L160.091 119.39Z" fill="black"/>
<path opacity="0.1" d="M82.1012 112.775V190.9H74.6954V117.33L82.1012 112.775Z" fill="black"/>
<path opacity="0.1" d="M72.6126 190.9V118.61L71.2241 119.463V190.9H72.6126Z" fill="black"/>
<path opacity="0.1" d="M115.773 85.717L60 126.216L63.7027 132.234L115.773 96.8255L167.844 132.234L171.547 126.216L115.773 85.717Z" fill="black"/>
<path d="M115.773 85.2544L60 125.754L63.7027 131.771L115.773 96.3628L167.844 131.771L171.547 125.754L115.773 85.2544Z" fill="#6C63FF"/>
<path opacity="0.7" d="M96.1023 150.979H76.6626V170.419H96.1023V150.979Z" fill="#6C63FF"/>
<path opacity="0.1" d="M96.6809 169.84H75.8526V172.154H96.6809V169.84Z" fill="black"/>
<path d="M96.6809 169.377H75.8526V171.692H96.6809V169.377Z" fill="#535461"/>
<path opacity="0.15" d="M84.7903 151.095L76.7783 162.15V156.517L81.2819 151.095H84.7903Z" fill="white"/>
<path opacity="0.15" d="M91.673 151.095L76.7783 166.744V163.983L87.8936 151.095H91.673Z" fill="white"/>
<path d="M76.6626 160.699H96.1023" stroke="#535461" stroke-width="2" stroke-miterlimit="10"/>
<path d="M76.7783 151.095H96.218" stroke="#535461" stroke-width="2" stroke-miterlimit="10"/>
<path d="M95.9866 151.095V170.534" stroke="#535461" stroke-width="2" stroke-miterlimit="10"/>
<path d="M76.7783 150.863V170.303" stroke="#535461" stroke-width="2" stroke-miterlimit="10"/>
<path opacity="0.7" d="M135.213 170.419H154.653V150.979H135.213V170.419Z" fill="#6C63FF"/>
<path opacity="0.1" d="M134.635 172.155H155.463V169.84H134.635V172.155Z" fill="black"/>
<path d="M134.635 171.692H155.463V169.377H134.635V171.692Z" fill="#535461"/>
<path opacity="0.15" d="M146.525 151.095L154.537 162.15V156.517L150.033 151.095H146.525Z" fill="white"/>
<path opacity="0.15" d="M139.643 151.095L154.537 166.744V163.983L143.422 151.095H139.643Z" fill="white"/>
<path d="M154.653 160.699H135.213" stroke="#535461" stroke-width="2" stroke-miterlimit="10"/>
<path d="M154.537 151.095H135.097" stroke="#535461" stroke-width="2" stroke-miterlimit="10"/>
<path d="M135.329 151.095V170.534" stroke="#535461" stroke-width="2" stroke-miterlimit="10"/>
<path d="M154.537 150.863V170.303" stroke="#535461" stroke-width="2" stroke-miterlimit="10"/>
<path opacity="0.7" d="M105.822 130.845H125.262V111.405H105.822V130.845Z" fill="#6C63FF"/>
<path opacity="0.1" d="M105.244 132.581H126.072V130.267H105.244V132.581Z" fill="black"/>
<path d="M105.244 132.118H126.072V129.804H105.244V132.118Z" fill="#535461"/>
<path opacity="0.15" d="M117.134 111.521L125.146 122.576V116.943L120.643 111.521H117.134Z" fill="white"/>
<path opacity="0.15" d="M110.252 111.521L125.146 127.17V124.409L114.031 111.521H110.252Z" fill="white"/>
<path d="M125.262 121.125H105.822" stroke="#535461" stroke-width="2" stroke-miterlimit="10"/>
<path d="M125.146 111.521H105.706" stroke="#535461" stroke-width="2" stroke-miterlimit="10"/>
<path d="M115.542 111.405V130.845" stroke="#535461" stroke-width="2" stroke-miterlimit="10"/>
<path d="M105.938 111.521V130.961" stroke="#535461" stroke-width="2" stroke-miterlimit="10"/>
<path d="M125.146 111.29V130.729" stroke="#535461" stroke-width="2" stroke-miterlimit="10"/>
<path opacity="0.1" d="M318.386 137.904H312.369V190.9H318.386V137.904Z" fill="black"/>
<path d="M306.931 91.2715H296.516V111.405H306.931V91.2715Z" fill="#E0E0E0"/>
<path d="M317.692 122.167V190.9H224.196V122.167L232.064 117.33L239.47 112.775L271.06 93.354L317.692 122.167Z" fill="#EEEEEE"/>
<path d="M281.358 158.847H260.53V190.784H281.358V158.847Z" fill="#6C63FF"/>
<path d="M278.234 175.742C278.745 175.742 279.16 175.327 279.16 174.816C279.16 174.305 278.745 173.89 278.234 173.89C277.723 173.89 277.308 174.305 277.308 174.816C277.308 175.327 277.723 175.742 278.234 175.742Z" fill="#535461"/>
<path opacity="0.1" d="M306.931 91.5027H296.516V92.6598H306.931V91.5027Z" fill="black"/>
<path d="M308.551 90.1143H294.665V92.4285H308.551V90.1143Z" fill="#E0E0E0"/>
<path opacity="0.1" d="M317.692 138.366H224.196V140.218H317.692V138.366Z" fill="black"/>
<path d="M317.692 138.135H224.196V139.986H317.692V138.135Z" fill="white"/>
<path opacity="0.1" d="M305.889 90.1143H303.344V111.405H305.889V90.1143Z" fill="black"/>
<path opacity="0.1" d="M302.186 90.23H301.492V111.521H302.186V90.23Z" fill="black"/>
<path opacity="0.1" d="M315.378 119.39V190.9H307.972V117.33L315.378 119.39Z" fill="black"/>
<path opacity="0.1" d="M237.387 112.775V190.9H229.982V117.33L237.387 112.775Z" fill="black"/>
<path opacity="0.1" d="M227.899 190.9V118.61L226.51 119.463V190.9H227.899Z" fill="black"/>
<path opacity="0.1" d="M271.06 85.717L215.286 126.216L218.989 132.234L271.06 96.8255L323.13 132.234L326.833 126.216L271.06 85.717Z" fill="black"/>
<path d="M271.06 85.2544L215.286 125.754L218.989 131.771L271.06 96.3628L323.13 131.771L326.833 125.754L271.06 85.2544Z" fill="#6C63FF"/>
<path opacity="0.7" d="M251.389 150.979H231.949V170.419H251.389V150.979Z" fill="#6C63FF"/>
<path opacity="0.1" d="M251.967 169.84H231.139V172.154H251.967V169.84Z" fill="black"/>
<path d="M251.967 169.377H231.139V171.692H251.967V169.377Z" fill="#535461"/>
<path opacity="0.15" d="M240.076 151.095L232.064 162.15V156.517L236.568 151.095H240.076Z" fill="white"/>
<path opacity="0.15" d="M246.959 151.095L232.064 166.744V163.983L243.18 151.095H246.959Z" fill="white"/>
<path d="M231.949 160.699H251.389" stroke="#535461" stroke-width="2" stroke-miterlimit="10"/>
<path d="M232.065 151.095H251.504" stroke="#535461" stroke-width="2" stroke-miterlimit="10"/>
<path d="M251.273 151.095V170.534" stroke="#535461" stroke-width="2" stroke-miterlimit="10"/>
<path d="M232.065 150.863V170.303" stroke="#535461" stroke-width="2" stroke-miterlimit="10"/>
<path opacity="0.7" d="M290.499 170.419H309.939V150.979H290.499V170.419Z" fill="#6C63FF"/>
<path opacity="0.1" d="M289.921 172.155H310.749V169.84H289.921V172.155Z" fill="black"/>
<path d="M289.921 171.692H310.749V169.377H289.921V171.692Z" fill="#535461"/>
<path opacity="0.15" d="M301.812 151.095L309.824 162.15V156.517L305.32 151.095H301.812Z" fill="white"/>
<path opacity="0.15" d="M294.929 151.095L309.823 166.744V163.983L298.708 151.095H294.929Z" fill="white"/>
<path d="M309.939 160.699H290.499" stroke="#535461" stroke-width="2" stroke-miterlimit="10"/>
<path d="M309.823 151.095H290.384" stroke="#535461" stroke-width="2" stroke-miterlimit="10"/>
<path d="M290.615 151.095V170.534" stroke="#535461" stroke-width="2" stroke-miterlimit="10"/>
<path d="M309.823 150.863V170.303" stroke="#535461" stroke-width="2" stroke-miterlimit="10"/>
<path opacity="0.7" d="M261.108 130.845H280.548V111.405H261.108V130.845Z" fill="#6C63FF"/>
<path opacity="0.1" d="M260.53 132.581H281.358V130.267H260.53V132.581Z" fill="black"/>
<path d="M260.53 132.118H281.358V129.804H260.53V132.118Z" fill="#535461"/>
<path opacity="0.15" d="M272.421 111.521L280.433 122.576V116.943L275.929 111.521H272.421Z" fill="white"/>
<path opacity="0.15" d="M265.538 111.521L280.433 127.17V124.409L269.317 111.521H265.538Z" fill="white"/>
<path d="M280.548 121.125H261.108" stroke="#535461" stroke-width="2" stroke-miterlimit="10"/>
<path d="M280.432 111.521H260.993" stroke="#535461" stroke-width="2" stroke-miterlimit="10"/>
<path d="M270.828 111.405V130.845" stroke="#535461" stroke-width="2" stroke-miterlimit="10"/>
<path d="M261.224 111.521V130.961" stroke="#535461" stroke-width="2" stroke-miterlimit="10"/>
<path d="M280.432 111.29V130.729" stroke="#535461" stroke-width="2" stroke-miterlimit="10"/>
<path d="M169.58 161.046C169.619 158.042 168.698 155.104 166.95 152.66C167.527 151.46 167.791 150.134 167.716 148.805C167.641 147.476 167.23 146.187 166.522 145.06C165.814 143.933 164.831 143.004 163.666 142.36C162.501 141.716 161.191 141.379 159.86 141.379C158.529 141.379 157.219 141.716 156.054 142.36C154.889 143.004 153.906 143.933 153.198 145.06C152.49 146.187 152.079 147.476 152.004 148.805C151.929 150.134 152.193 151.46 152.77 152.66C151.058 155.121 150.14 158.048 150.14 161.046C150.14 164.044 151.058 166.971 152.77 169.432C152.193 170.631 151.929 171.958 152.004 173.287C152.079 174.616 152.49 175.905 153.198 177.032C153.906 178.159 154.889 179.088 156.054 179.732C157.219 180.375 158.529 180.713 159.86 180.713C161.191 180.713 162.501 180.375 163.666 179.732C164.831 179.088 165.814 178.159 166.522 177.032C167.23 175.905 167.641 174.616 167.716 173.287C167.791 171.958 167.527 170.631 166.95 169.432C168.698 166.988 169.619 164.05 169.58 161.046Z" fill="#4DB6AC"/>
<path opacity="0.1" d="M169.58 161.046C169.619 158.042 168.698 155.104 166.95 152.66C167.527 151.46 167.791 150.134 167.716 148.805C167.641 147.476 167.23 146.187 166.522 145.06C165.814 143.933 164.831 143.004 163.666 142.36C162.501 141.716 161.191 141.379 159.86 141.379C158.529 141.379 157.219 141.716 156.054 142.36C154.889 143.004 153.906 143.933 153.198 145.06C152.49 146.187 152.079 147.476 152.004 148.805C151.929 150.134 152.193 151.46 152.77 152.66C151.058 155.121 150.14 158.048 150.14 161.046C150.14 164.044 151.058 166.971 152.77 169.432C152.193 170.631 151.929 171.958 152.004 173.287C152.079 174.616 152.49 175.905 153.198 177.032C153.906 178.159 154.889 179.088 156.054 179.732C157.219 180.375 158.529 180.713 159.86 180.713C161.191 180.713 162.501 180.375 163.666 179.732C164.831 179.088 165.814 178.159 166.522 177.032C167.23 175.905 167.641 174.616 167.716 173.287C167.791 171.958 167.527 170.631 166.95 169.432C168.698 166.988 169.619 164.05 169.58 161.046Z" fill="black"/>
<path d="M170.043 161.046C170.082 158.042 169.161 155.104 167.413 152.66C167.99 151.46 168.254 150.134 168.179 148.805C168.104 147.476 167.693 146.187 166.985 145.06C166.276 143.933 165.294 143.004 164.129 142.36C162.963 141.716 161.654 141.379 160.323 141.379C158.992 141.379 157.682 141.716 156.517 142.36C155.352 143.004 154.369 143.933 153.661 145.06C152.952 146.187 152.542 147.476 152.467 148.805C152.392 150.134 152.656 151.46 153.233 152.66C151.521 155.121 150.603 158.048 150.603 161.046C150.603 164.044 151.521 166.971 153.233 169.432C152.656 170.631 152.392 171.958 152.467 173.287C152.542 174.616 152.952 175.905 153.661 177.032C154.369 178.159 155.352 179.088 156.517 179.732C157.682 180.375 158.992 180.713 160.323 180.713C161.654 180.713 162.963 180.375 164.129 179.732C165.294 179.088 166.276 178.159 166.985 177.032C167.693 175.905 168.104 174.616 168.179 173.287C168.254 171.958 167.99 170.631 167.413 169.432C169.161 166.988 170.082 164.05 170.043 161.046Z" fill="#4DB6AC"/>
<path d="M161.248 190.9H159.397L160.323 160.352L161.248 190.9Z" fill="#5D291B"/>
<path d="M160.554 167.986L166.571 165.443L160.554 168.683V167.986Z" fill="#5D291B"/>
<path d="M160.007 170.766L158.24 168.683L159.972 171.923L160.007 170.766Z" fill="#5D291B"/>
<path d="M233.685 161.046C233.724 158.042 232.803 155.104 231.054 152.66C231.632 151.46 231.896 150.134 231.821 148.805C231.746 147.476 231.335 146.187 230.627 145.06C229.918 143.933 228.936 143.004 227.771 142.36C226.605 141.716 225.296 141.379 223.965 141.379C222.633 141.379 221.324 141.716 220.159 142.36C218.994 143.004 218.011 143.933 217.303 145.06C216.594 146.187 216.183 147.476 216.109 148.805C216.034 150.134 216.297 151.46 216.875 152.66C215.163 155.121 214.245 158.048 214.245 161.046C214.245 164.044 215.163 166.971 216.875 169.432C216.297 170.632 216.034 171.958 216.109 173.287C216.183 174.616 216.594 175.905 217.303 177.032C218.011 178.159 218.994 179.088 220.159 179.732C221.324 180.376 222.633 180.713 223.965 180.713C225.296 180.713 226.605 180.376 227.771 179.732C228.936 179.088 229.918 178.159 230.627 177.032C231.335 175.905 231.746 174.616 231.821 173.287C231.896 171.958 231.632 170.632 231.054 169.432C232.803 166.988 233.724 164.05 233.685 161.046Z" fill="#4DB6AC"/>
<path opacity="0.1" d="M233.685 161.046C233.724 158.042 232.803 155.104 231.054 152.66C231.632 151.46 231.896 150.134 231.821 148.805C231.746 147.476 231.335 146.187 230.627 145.06C229.918 143.933 228.936 143.004 227.771 142.36C226.605 141.716 225.296 141.379 223.965 141.379C222.633 141.379 221.324 141.716 220.159 142.36C218.994 143.004 218.011 143.933 217.303 145.06C216.594 146.187 216.183 147.476 216.109 148.805C216.034 150.134 216.297 151.46 216.875 152.66C215.163 155.121 214.245 158.048 214.245 161.046C214.245 164.044 215.163 166.971 216.875 169.432C216.297 170.632 216.034 171.958 216.109 173.287C216.183 174.616 216.594 175.905 217.303 177.032C218.011 178.159 218.994 179.088 220.159 179.732C221.324 180.376 222.633 180.713 223.965 180.713C225.296 180.713 226.605 180.376 227.771 179.732C228.936 179.088 229.918 178.159 230.627 177.032C231.335 175.905 231.746 174.616 231.821 173.287C231.896 171.958 231.632 170.632 231.054 169.432C232.803 166.988 233.724 164.05 233.685 161.046Z" fill="black"/>
<path d="M234.147 161.046C234.187 158.042 233.265 155.104 231.517 152.66C232.095 151.46 232.358 150.134 232.284 148.805C232.209 147.476 231.798 146.187 231.09 145.06C230.381 143.933 229.398 143.004 228.233 142.36C227.068 141.716 225.759 141.379 224.428 141.379C223.096 141.379 221.787 141.716 220.622 142.36C219.457 143.004 218.474 143.933 217.765 145.06C217.057 146.187 216.646 147.476 216.571 148.805C216.497 150.134 216.76 151.46 217.338 152.66C215.625 155.121 214.708 158.048 214.708 161.046C214.708 164.044 215.625 166.971 217.338 169.432C216.76 170.631 216.497 171.958 216.571 173.287C216.646 174.616 217.057 175.905 217.765 177.032C218.474 178.159 219.457 179.088 220.622 179.732C221.787 180.375 223.096 180.713 224.428 180.713C225.759 180.713 227.068 180.375 228.233 179.732C229.398 179.088 230.381 178.159 231.09 177.032C231.798 175.905 232.209 174.616 232.284 173.287C232.358 171.958 232.095 170.631 231.517 169.432C233.265 166.988 234.187 164.05 234.147 161.046Z" fill="#4DB6AC"/>
<path d="M225.353 190.9H223.502L224.427 160.352L225.353 190.9Z" fill="#5D291B"/>
<path d="M224.659 167.986L230.676 165.443L224.659 168.683V167.986Z" fill="#5D291B"/>
<path d="M224.112 170.766L222.344 168.683L224.077 171.923L224.112 170.766Z" fill="#5D291B"/>
<g opacity="0.7">
<path opacity="0.7" d="M187.546 180.949L187.355 180.914L187.731 179.528C188.323 175.087 186.086 174.64 185.248 174.625C185.151 174.589 185.053 174.559 184.953 174.535V174.012C185.481 173.881 185.959 173.599 186.328 173.2C186.697 172.801 186.941 172.303 187.03 171.766L187.037 171.767C187.17 171.767 187.278 171.564 187.278 171.314C187.284 171.181 187.247 171.051 187.173 170.94C187.183 170.845 187.188 170.748 187.188 170.65C187.188 170.259 187.109 169.872 186.956 169.512C186.802 169.152 186.577 168.828 186.294 168.557C186.256 168.364 186.186 168.178 186.089 168.006C185.884 167.643 185.541 167.265 185.681 166.872L184.776 166.965L184.768 166.369C184.485 166.42 184.367 166.747 184.2 166.98C183.797 167.54 182.989 167.618 182.454 168.054C182.273 168.202 181.864 168.654 181.941 168.949C181.582 169.443 181.389 170.039 181.39 170.65C181.39 170.748 181.394 170.845 181.404 170.94C181.331 171.051 181.294 171.181 181.299 171.314C181.299 171.564 181.407 171.767 181.541 171.767L181.545 171.766C181.635 172.303 181.88 172.801 182.249 173.2C182.618 173.599 183.097 173.881 183.624 174.012V174.535C183.524 174.559 183.426 174.589 183.33 174.625C182.491 174.64 180.254 175.087 180.846 179.528L181.222 180.914L181.133 180.93C180.864 180.98 180.626 181.135 180.472 181.361C180.317 181.586 180.258 181.864 180.309 182.132L181.791 190.074C181.806 190.156 181.853 190.228 181.921 190.275C181.99 190.321 182.074 190.339 182.155 190.324L182.416 190.275V190.43C182.271 190.501 182.149 190.612 182.064 190.749C181.979 190.887 181.933 191.045 181.933 191.207V191.305H183.685V191.207C183.685 191.057 183.646 190.909 183.572 190.779C183.497 190.649 183.391 190.54 183.262 190.463V190.117L183.501 190.073C183.541 190.065 183.579 190.05 183.614 190.027C183.648 190.005 183.678 189.976 183.701 189.942C183.724 189.909 183.74 189.871 183.749 189.83C183.757 189.79 183.758 189.749 183.75 189.709L182.357 182.246H186.22L184.827 189.709C184.812 189.79 184.83 189.874 184.877 189.942C184.923 190.011 184.995 190.058 185.077 190.073L185.315 190.117V190.463C185.187 190.54 185.08 190.649 185.006 190.779C184.932 190.909 184.893 191.057 184.893 191.207V191.305H186.644V191.207C186.644 191.045 186.599 190.887 186.513 190.749C186.428 190.612 186.306 190.501 186.161 190.43V190.275L186.422 190.324C186.504 190.339 186.588 190.321 186.656 190.275C186.724 190.228 186.771 190.156 186.786 190.074L188.288 182.031C188.31 181.911 188.309 181.788 188.284 181.669C188.258 181.55 188.21 181.437 188.141 181.337C188.072 181.236 187.984 181.15 187.882 181.084C187.78 181.017 187.666 180.972 187.546 180.949Z" fill="url(#paint0_linear)"/>
</g>
<path d="M183.301 189.264H182.488V190.368H183.301V189.264Z" fill="#FDB797"/>
<path d="M186.09 189.264H185.277V190.368H186.09V189.264Z" fill="#FDB797"/>
<path d="M186.962 180.199H181.616V182.117H186.962V180.199Z" fill="#4D8AF0"/>
<g opacity="0.05">
<path opacity="0.05" d="M186.962 180.199H181.616V182.117H186.962V180.199Z" fill="black"/>
</g>
<path opacity="0.1" d="M181.616 180.548C182.496 180.762 183.389 180.917 184.289 181.012C185.189 180.917 186.082 180.762 186.962 180.548V180.257H181.616V180.548Z" fill="black"/>
<path d="M186.962 180.489C186.082 180.703 185.189 180.859 184.289 180.954C183.389 180.859 182.496 180.703 181.616 180.489V177.293C181.616 176.942 181.685 176.595 181.819 176.27C181.954 175.946 182.151 175.651 182.399 175.403C182.647 175.155 182.942 174.958 183.266 174.824C183.59 174.69 183.938 174.62 184.289 174.62C184.64 174.62 184.988 174.69 185.312 174.824C185.636 174.958 185.931 175.155 186.179 175.403C186.427 175.651 186.624 175.946 186.759 176.27C186.893 176.595 186.962 176.942 186.962 177.293V180.489Z" fill="#F55F44"/>
<path d="M183.65 173.284H184.928V174.748C184.928 174.831 184.912 174.912 184.88 174.989C184.849 175.065 184.803 175.134 184.744 175.192C184.686 175.25 184.617 175.297 184.541 175.328C184.465 175.36 184.383 175.376 184.301 175.376H184.277C184.195 175.376 184.113 175.36 184.037 175.328C183.961 175.297 183.892 175.25 183.834 175.192C183.775 175.134 183.729 175.065 183.698 174.989C183.666 174.912 183.65 174.831 183.65 174.748V173.284H183.65Z" fill="#FDB797"/>
<path d="M183.396 189.672L182.371 189.864C182.257 189.885 182.139 189.86 182.043 189.795C181.948 189.729 181.882 189.628 181.861 189.514L180.543 182.453C180.472 182.077 180.555 181.687 180.771 181.371C180.988 181.055 181.321 180.838 181.698 180.768L181.733 180.761C181.789 180.751 181.847 180.751 181.903 180.763C181.959 180.775 182.013 180.798 182.06 180.831C182.108 180.863 182.148 180.904 182.179 180.953C182.211 181.001 182.232 181.055 182.243 181.111L183.746 189.162C183.767 189.276 183.742 189.394 183.677 189.49C183.611 189.585 183.51 189.651 183.396 189.672Z" fill="#4D8AF0"/>
<path d="M185.218 189.679L186.171 189.857C186.232 189.868 186.295 189.868 186.356 189.855C186.417 189.842 186.475 189.817 186.526 189.782C186.577 189.747 186.621 189.702 186.655 189.65C186.689 189.598 186.713 189.539 186.724 189.478L188.042 182.417C188.111 182.05 188.03 181.671 187.819 181.363C187.608 181.054 187.283 180.843 186.916 180.774L186.881 180.768C186.82 180.756 186.757 180.757 186.696 180.77C186.635 180.783 186.578 180.808 186.526 180.843C186.475 180.878 186.431 180.923 186.397 180.975C186.363 181.027 186.34 181.085 186.328 181.147L184.839 189.126C184.816 189.25 184.843 189.377 184.914 189.481C184.985 189.585 185.094 189.656 185.218 189.679Z" fill="#4D8AF0"/>
<path opacity="0.1" d="M183.65 174.252C184.07 174.356 184.508 174.356 184.928 174.252V173.342H183.65V174.252Z" fill="black"/>
<path d="M184.289 173.749C185.829 173.749 187.078 172.5 187.078 170.959C187.078 169.419 185.829 168.17 184.289 168.17C182.748 168.17 181.5 169.419 181.5 170.959C181.5 172.5 182.748 173.749 184.289 173.749Z" fill="#333333"/>
<path d="M184.289 174.272C185.765 174.272 186.962 173.075 186.962 171.599C186.962 170.122 185.765 168.926 184.289 168.926C182.813 168.926 181.616 170.122 181.616 171.599C181.616 173.075 182.813 174.272 184.289 174.272Z" fill="#FDB797"/>
<path d="M182.524 168.462C183.038 168.042 183.816 167.967 184.203 167.428C184.365 167.204 184.478 166.89 184.75 166.841L184.758 167.414L185.628 167.325C185.494 167.703 185.823 168.067 186.021 168.416C186.167 168.674 186.247 168.964 186.254 169.26C185.952 169.442 185.577 169.244 185.241 169.138C184.909 169.051 184.567 169.009 184.224 169.015C184.048 169.003 183.872 169.013 183.699 169.044C183.55 169.084 183.405 169.138 183.266 169.203C183.034 169.3 182.304 169.666 182.088 169.43C181.844 169.163 182.326 168.624 182.524 168.462Z" fill="#333333"/>
<path opacity="0.1" d="M182.669 170.258C182.816 170.337 182.976 170.386 183.142 170.401C183.827 170.494 184.524 170.416 185.171 170.173C185.232 170.304 185.32 170.42 185.431 170.514C185.541 170.607 185.671 170.675 185.81 170.713C186.09 170.787 186.378 170.819 186.667 170.809C186.731 170.816 186.795 170.804 186.851 170.774C186.98 170.687 186.918 170.488 186.843 170.352L186.47 169.677C186.372 169.471 186.239 169.284 186.077 169.123C185.851 168.946 185.583 168.831 185.3 168.79C184.638 168.658 183.956 168.681 183.305 168.856C182.609 169.044 181.715 169.681 182.669 170.258Z" fill="black"/>
<path d="M182.669 170.2C182.816 170.279 182.976 170.328 183.142 170.343C183.827 170.436 184.524 170.358 185.171 170.115C185.232 170.246 185.32 170.362 185.431 170.456C185.541 170.549 185.671 170.617 185.81 170.655C186.09 170.729 186.378 170.761 186.667 170.751C186.731 170.758 186.795 170.746 186.851 170.716C186.98 170.629 186.918 170.43 186.843 170.294L186.47 169.619C186.372 169.413 186.239 169.226 186.077 169.065C185.851 168.888 185.583 168.773 185.3 168.732C184.638 168.6 183.956 168.623 183.305 168.798C182.609 168.986 181.715 169.623 182.669 170.2Z" fill="#333333"/>
<path d="M186.933 172.034C187.061 172.034 187.165 171.839 187.165 171.599C187.165 171.358 187.061 171.163 186.933 171.163C186.805 171.163 186.701 171.358 186.701 171.599C186.701 171.839 186.805 172.034 186.933 172.034Z" fill="#FDB797"/>
<path d="M181.645 172.034C181.773 172.034 181.877 171.839 181.877 171.599C181.877 171.358 181.773 171.163 181.645 171.163C181.517 171.163 181.413 171.358 181.413 171.599C181.413 171.839 181.517 172.034 181.645 172.034Z" fill="#FDB797"/>
<path d="M183.661 174.798C183.661 174.798 180.279 174.272 180.977 179.501L181.383 181.001L182.546 180.954C182.546 180.954 181.79 179.211 182.255 178.049C182.72 176.887 183.661 174.798 183.661 174.798Z" fill="#F55F44"/>
<path d="M184.917 174.798C184.917 174.798 188.299 174.272 187.601 179.501L187.195 181.001L186.032 180.954C186.032 180.954 186.788 179.211 186.323 178.049C185.858 176.887 184.917 174.798 184.917 174.798Z" fill="#F55F44"/>
<path d="M182.023 181.826C182.376 181.826 182.662 181.54 182.662 181.187C182.662 180.834 182.376 180.548 182.023 180.548C181.67 180.548 181.384 180.834 181.384 181.187C181.384 181.54 181.67 181.826 182.023 181.826Z" fill="#FDB797"/>
<path d="M186.671 181.826C187.025 181.826 187.311 181.54 187.311 181.187C187.311 180.834 187.025 180.548 186.671 180.548C186.318 180.548 186.032 180.834 186.032 181.187C186.032 181.54 186.318 181.826 186.671 181.826Z" fill="#FDB797"/>
<path d="M182.85 189.903H182.881C183.1 189.903 183.311 189.99 183.466 190.145C183.621 190.3 183.708 190.511 183.708 190.73V190.833H182.023V190.73C182.023 190.622 182.044 190.514 182.086 190.414C182.127 190.313 182.188 190.222 182.265 190.145C182.342 190.069 182.433 190.008 182.533 189.966C182.634 189.924 182.741 189.903 182.85 189.903Z" fill="#333333"/>
<path d="M185.697 189.903H185.728C185.948 189.903 186.158 189.99 186.313 190.145C186.468 190.3 186.555 190.511 186.555 190.73V190.833H184.87V190.73C184.87 190.622 184.891 190.514 184.933 190.414C184.975 190.313 185.035 190.222 185.112 190.145C185.189 190.069 185.28 190.008 185.381 189.966C185.481 189.924 185.588 189.903 185.697 189.903Z" fill="#333333"/>
<path opacity="0.1" d="M182.197 177.584C182.197 177.584 181.965 178.804 182.371 179.327L182.197 177.584Z" fill="black"/>
<path opacity="0.1" d="M186.381 177.584C186.381 177.584 186.613 178.804 186.207 179.327L186.381 177.584Z" fill="black"/>
<path d="M229.056 164.054C229.695 164.054 230.213 163.536 230.213 162.897C230.213 162.258 229.695 161.74 229.056 161.74C228.417 161.74 227.899 162.258 227.899 162.897C227.899 163.536 228.417 164.054 229.056 164.054Z" fill="#F55F44"/>
<path d="M86.0191 185.204C86.0273 185.097 86.0353 184.991 86.0353 184.883C86.0364 184.148 85.8429 183.427 85.4746 182.791C85.1063 182.156 84.5763 181.629 83.9384 181.265C83.3006 180.9 82.5776 180.712 81.8431 180.717C81.1086 180.723 80.3887 180.923 79.7566 181.297C79.4252 180.677 78.9417 180.15 78.3516 179.768C77.7614 179.385 77.0838 179.158 76.382 179.108C75.6803 179.058 74.9774 179.187 74.339 179.482C73.7005 179.778 73.1475 180.23 72.7315 180.798C71.8858 180.629 71.0084 180.727 70.2208 181.078C69.4331 181.43 68.7739 182.017 68.3343 182.759C67.8947 183.501 67.6963 184.361 67.7666 185.221C67.8369 186.08 68.1723 186.897 68.7266 187.557C68.4285 188.33 68.3676 189.174 68.5519 189.981C68.7361 190.788 69.1571 191.522 69.7609 192.088C70.3647 192.655 71.1238 193.028 71.9411 193.161C72.7584 193.293 73.5966 193.179 74.3484 192.832C75.0849 193.172 75.9053 193.289 76.7076 193.167C77.5099 193.046 78.2588 192.691 78.8612 192.147C79.416 192.649 80.0964 192.99 80.83 193.135C81.5636 193.281 82.3228 193.224 83.0268 192.972C84.0493 193.334 85.1727 193.283 86.158 192.83C87.1433 192.376 87.9128 191.556 88.3027 190.544C88.6926 189.532 88.6721 188.407 88.2456 187.41C87.8192 186.413 87.0203 185.621 86.0191 185.204H86.0191Z" fill="#4DB6AC"/>
<path opacity="0.1" d="M86.0191 185.204C86.0273 185.097 86.0353 184.991 86.0353 184.883C86.0364 184.148 85.8429 183.427 85.4746 182.791C85.1063 182.156 84.5763 181.629 83.9384 181.265C83.3006 180.9 82.5776 180.712 81.8431 180.717C81.1086 180.723 80.3887 180.923 79.7566 181.297C79.4252 180.677 78.9417 180.15 78.3516 179.768C77.7614 179.385 77.0838 179.158 76.382 179.108C75.6803 179.058 74.9774 179.187 74.339 179.482C73.7005 179.778 73.1475 180.23 72.7315 180.798C71.8858 180.629 71.0084 180.727 70.2208 181.078C69.4331 181.43 68.7739 182.017 68.3343 182.759C67.8947 183.501 67.6963 184.361 67.7666 185.221C67.8369 186.08 68.1723 186.897 68.7266 187.557C68.4285 188.33 68.3676 189.174 68.5519 189.981C68.7361 190.788 69.1571 191.522 69.7609 192.088C70.3647 192.655 71.1238 193.028 71.9411 193.161C72.7584 193.293 73.5966 193.179 74.3484 192.832C75.0849 193.172 75.9053 193.289 76.7076 193.167C77.5099 193.046 78.2588 192.691 78.8612 192.147C79.416 192.649 80.0964 192.99 80.83 193.135C81.5636 193.281 82.3228 193.224 83.0268 192.972C84.0493 193.334 85.1727 193.283 86.158 192.83C87.1433 192.376 87.9128 191.556 88.3027 190.544C88.6926 189.532 88.6721 188.407 88.2456 187.41C87.8192 186.413 87.0203 185.621 86.0191 185.204H86.0191Z" fill="black"/>
<path d="M86.482 185.204C86.4901 185.097 86.4982 184.991 86.4982 184.883C86.4992 184.148 86.3058 183.427 85.9374 182.791C85.5691 182.156 85.0391 181.629 84.4012 181.265C83.7634 180.9 83.0404 180.712 82.3059 180.717C81.5714 180.723 80.8515 180.923 80.2195 181.297C79.888 180.677 79.4046 180.15 78.8144 179.768C78.2242 179.385 77.5466 179.158 76.8449 179.108C76.1431 179.058 75.4402 179.187 74.8018 179.482C74.1634 179.778 73.6103 180.23 73.1944 180.798C72.3486 180.629 71.4713 180.727 70.6836 181.078C69.8959 181.43 69.2367 182.017 68.7971 182.759C68.3575 183.501 68.1591 184.361 68.2294 185.221C68.2997 186.08 68.6352 186.897 69.1895 187.557C68.8913 188.33 68.8304 189.174 69.0147 189.981C69.1989 190.788 69.6199 191.522 70.2237 192.088C70.8275 192.655 71.5867 193.028 72.4039 193.161C73.2212 193.293 74.0594 193.179 74.8112 192.832C75.5477 193.172 76.3681 193.289 77.1704 193.167C77.9727 193.046 78.7216 192.691 79.324 192.147C79.8788 192.649 80.5592 192.99 81.2928 193.135C82.0264 193.281 82.7856 193.224 83.4897 192.972C84.5121 193.334 85.6355 193.283 86.6208 192.83C87.6062 192.376 88.3756 191.556 88.7655 190.544C89.1554 189.532 89.1349 188.407 88.7085 187.41C88.282 186.413 87.4832 185.621 86.482 185.204H86.482Z" fill="#4DB6AC"/>
<path d="M323.962 191.303H63.5871V193.968H323.962V191.303Z" fill="#333333"/>
<path d="M220.886 67.3467C226.78 67.3467 231.559 62.5681 231.559 56.6734C231.559 50.7786 226.78 46 220.886 46C214.991 46 210.212 50.7786 210.212 56.6734C210.212 62.5681 214.991 67.3467 220.886 67.3467Z" fill="#FFFFA5"/>
<g opacity="0.3">
<path opacity="0.3" d="M318.938 59.9783H290.185C288.26 59.9783 286.7 61.5386 286.7 63.4634V63.4635C286.7 65.3883 288.26 66.9486 290.185 66.9486H318.938C320.863 66.9486 322.423 65.3883 322.423 63.4634C322.423 61.5386 320.863 59.9783 318.938 59.9783Z" fill="#E0E0E0"/>
<path opacity="0.3" d="M310.225 66.9487H281.472C279.547 66.9487 277.987 68.5091 277.987 70.4339V70.4339C277.987 72.3587 279.547 73.9191 281.472 73.9191H310.225C312.15 73.9191 313.71 72.3587 313.71 70.4339C313.71 68.5091 312.15 66.9487 310.225 66.9487Z" fill="#E0E0E0"/>
<path opacity="0.3" d="M318.938 73.9189H290.185C288.26 73.9189 286.7 75.4793 286.7 77.4041V77.4041C286.7 79.3289 288.26 80.8893 290.185 80.8893H318.938C320.863 80.8893 322.423 79.3289 322.423 77.4041C322.423 75.4793 320.863 73.9189 318.938 73.9189Z" fill="#E0E0E0"/>
</g>
<g opacity="0.3">
<path opacity="0.3" d="M154.163 56.5068H125.411C123.486 56.5068 121.925 58.0672 121.925 59.992V59.992C121.925 61.9168 123.486 63.4772 125.411 63.4772H154.163C156.088 63.4772 157.648 61.9168 157.648 59.992C157.648 58.0672 156.088 56.5068 154.163 56.5068Z" fill="#E0E0E0"/>
<path opacity="0.3" d="M145.45 63.4773H116.698C114.773 63.4773 113.212 65.0377 113.212 66.9625V66.9625C113.212 68.8873 114.773 70.4476 116.698 70.4476H145.45C147.375 70.4476 148.935 68.8873 148.935 66.9625C148.935 65.0377 147.375 63.4773 145.45 63.4773Z" fill="#E0E0E0"/>
<path opacity="0.3" d="M154.163 70.4475H125.411C123.486 70.4475 121.925 72.0079 121.925 73.9327V73.9327C121.925 75.8575 123.486 77.4179 125.411 77.4179H154.163C156.088 77.4179 157.648 75.8575 157.648 73.9327C157.648 72.0079 156.088 70.4475 154.163 70.4475Z" fill="#E0E0E0"/>
</g>
<g opacity="0.3">
<path opacity="0.3" d="M92.1267 81.6672H99.7505C99.7505 81.6672 96.8778 86.7498 92.1267 81.6672Z" fill="#030B44"/>
<path opacity="0.3" d="M92.5868 83.8298L97.5847 78.0728C97.5847 78.0728 99.5395 83.574 92.5868 83.8298Z" fill="#030B44"/>
</g>
<g opacity="0.3">
<path opacity="0.3" d="M175.751 54.1277H183.375C183.375 54.1277 180.502 59.2102 175.751 54.1277Z" fill="#030B44"/>
<path opacity="0.3" d="M176.211 56.2903L181.209 50.5332C181.209 50.5332 183.164 56.0345 176.211 56.2903Z" fill="#030B44"/>
</g>
<g opacity="0.3">
<path opacity="0.3" d="M331.822 78.8901H340C340 78.8901 336.918 84.3423 331.822 78.8901Z" fill="#030B44"/>
<path opacity="0.3" d="M332.315 81.2102L337.677 75.0344C337.677 75.0344 339.774 80.9358 332.315 81.2102Z" fill="#030B44"/>
</g>
<path d="M141.026 182.911L140.468 183.823C140.468 183.823 140.441 184.054 140.627 183.914C140.849 183.621 141.032 183.3 141.173 182.96L141.026 182.911Z" fill="#2F2E41"/>
<path d="M145.818 174.182L147.222 171.839C147.313 171.684 147.44 171.553 147.591 171.456C147.743 171.36 147.915 171.301 148.094 171.284C148.252 171.261 148.414 171.295 148.549 171.381C148.684 171.468 148.783 171.6 148.829 171.754C148.92 172.021 148.937 172.308 148.877 172.584C148.818 172.86 148.686 173.115 148.493 173.321C148.493 173.321 148.201 173.401 148.217 173.128L148.551 172.545C148.551 172.545 148.829 171.754 148.052 171.696C147.276 171.638 146.166 174.311 146.166 174.311L145.818 174.182Z" fill="#2F2E41"/>
<path d="M146.673 174.531L145.767 175.314C145.765 175.65 145.469 176.328 145.029 177.15C144.996 177.213 144.962 177.277 144.926 177.342C144.665 177.82 144.362 178.339 144.045 178.863C144.01 178.921 143.975 178.979 143.939 179.037C143.584 179.618 143.215 180.201 142.87 180.735C142.834 180.791 142.799 180.846 142.764 180.901C142.366 181.514 142.007 182.053 141.748 182.438C141.71 182.495 141.674 182.548 141.641 182.598C141.447 182.884 141.332 183.051 141.332 183.051C141.264 183.094 141.184 183.116 141.103 183.113C141.073 183.11 141.044 183.1 141.02 183.083C140.995 183.066 140.974 183.044 140.96 183.017C140.908 182.895 140.889 182.762 140.905 182.63C141.009 182.102 141.186 181.59 141.428 181.109C141.46 181.04 141.494 180.969 141.529 180.898C141.804 180.334 142.145 179.728 142.51 179.127L142.616 178.953C142.97 178.376 143.341 177.808 143.69 177.291C143.726 177.238 143.762 177.185 143.798 177.133C144.141 176.629 144.458 176.181 144.711 175.83C144.749 175.777 144.785 175.727 144.82 175.679C145.109 175.28 145.29 175.041 145.29 175.041L145.496 173.821L145.891 174.059L146.195 174.243L146.673 174.531Z" fill="#3F3D56"/>
<path d="M141.529 180.898L141.748 182.438C141.71 182.494 141.674 182.548 141.641 182.598L141.428 181.109C141.46 181.04 141.494 180.969 141.529 180.898Z" fill="#6C63FF"/>
<path d="M142.616 178.953L142.87 180.735C142.834 180.791 142.799 180.846 142.764 180.901L142.51 179.126L142.616 178.953Z" fill="#6C63FF"/>
<path d="M143.798 177.133L144.045 178.863C144.01 178.921 143.975 178.979 143.939 179.037L143.69 177.291C143.726 177.238 143.762 177.185 143.798 177.133Z" fill="#6C63FF"/>
<path d="M144.82 175.679L145.029 177.15C144.996 177.213 144.962 177.277 144.926 177.342L144.711 175.83C144.749 175.777 144.785 175.727 144.82 175.679Z" fill="#6C63FF"/>
<path d="M152.279 163.806C153.199 163.806 153.945 163.06 153.945 162.14C153.945 161.219 153.199 160.473 152.279 160.473C151.358 160.473 150.612 161.219 150.612 162.14C150.612 163.06 151.358 163.806 152.279 163.806Z" fill="#2F2E41"/>
<path d="M151.234 163.262C151.234 163.262 151.378 164.912 151.234 165.342C151.091 165.772 153.099 165.127 153.099 165.127C153.099 165.127 152.31 163.262 152.453 163.083C152.597 162.904 151.234 163.262 151.234 163.262Z" fill="#FFB8B8"/>
<path d="M151.181 175.327L151.073 180.597C151.046 180.95 151.134 181.302 151.324 181.601C151.647 182.139 153.081 186.19 153.081 186.19L154.264 185.544L154.156 183.931C154.156 183.931 153.941 181.708 153.224 180.884L154.264 175.829L151.181 175.327Z" fill="#FFB8B8"/>
<path opacity="0.1" d="M151.181 175.327L151.073 180.597C151.046 180.95 151.134 181.302 151.324 181.601C151.647 182.139 153.081 186.19 153.081 186.19L154.264 185.544L154.156 183.931C154.156 183.931 153.941 181.708 153.224 180.884L154.264 175.829L151.181 175.327Z" fill="black"/>
<path d="M154.407 184.792C154.407 184.792 151.432 185.401 151.934 186.369C152.435 187.337 153.368 189.345 153.368 189.345C153.368 189.345 153.619 190.6 153.152 190.85C152.686 191.101 151.718 192.607 152.651 192.536C153.583 192.464 154.479 191.424 154.479 191.424L155.268 190.42L155.411 190.671L156.845 189.488C156.845 189.488 157.383 188.341 155.411 187.767L154.407 184.792Z" fill="#2F2E41"/>
<path opacity="0.1" d="M154.407 184.792C154.407 184.792 151.432 185.401 151.934 186.369C152.435 187.337 153.368 189.345 153.368 189.345C153.368 189.345 153.619 190.6 153.152 190.85C152.686 191.101 151.718 192.607 152.651 192.536C153.583 192.464 154.479 191.424 154.479 191.424L155.268 190.42L155.411 190.671L156.845 189.488C156.845 189.488 157.383 188.341 155.411 187.767L154.407 184.792Z" fill="black"/>
<path d="M150.571 175.47L150.464 180.74C150.436 181.093 150.524 181.445 150.714 181.744C151.037 182.282 152.471 186.333 152.471 186.333L153.654 185.688L153.547 184.074C153.547 184.074 153.332 181.852 152.615 181.027L153.654 175.972L150.571 175.47Z" fill="#FFB8B8"/>
<path d="M153.798 184.935C153.798 184.935 150.822 185.545 151.324 186.513C151.826 187.481 152.758 189.488 152.758 189.488C152.758 189.488 153.009 190.743 152.543 190.994C152.077 191.245 151.109 192.751 152.041 192.679C152.973 192.607 153.87 191.568 153.87 191.568L154.658 190.564L154.802 190.815L156.236 189.632C156.236 189.632 156.774 188.484 154.802 187.911L153.798 184.935Z" fill="#2F2E41"/>
<path d="M151.736 164.159C152.489 164.159 153.099 163.549 153.099 162.796C153.099 162.044 152.489 161.434 151.736 161.434C150.984 161.434 150.374 162.044 150.374 162.796C150.374 163.549 150.984 164.159 151.736 164.159Z" fill="#FFB8B8"/>
<path d="M151.575 164.858C151.575 164.858 153.081 164.033 153.762 164.033C154.443 164.033 155.196 163.711 155.268 164.105C155.339 164.499 156.056 165.539 155.339 165.467C154.622 165.396 154.049 165.503 153.69 165.467C153.332 165.431 151.575 164.858 151.575 164.858Z" fill="#575A89"/>
<path d="M150.714 174.251C150.714 174.251 150.069 175.864 150.499 175.936C151.487 176.058 152.48 176.118 153.475 176.115C153.583 176.044 153.941 174.179 150.714 174.251Z" fill="#6C63FF"/>
<path d="M155.124 174.968C154.371 175.685 154.802 176.008 154.515 176.546C154.228 177.083 152.113 176.653 151.252 175.506C150.392 174.359 150.177 174.789 149.245 174.646C148.312 174.502 147.488 173.821 148.277 173.427C148.687 173.19 149.014 172.832 149.212 172.401C149.387 172.055 149.496 171.679 149.535 171.292C149.562 171.023 149.549 170.752 149.496 170.487C149.352 169.79 149.595 168.414 149.99 167.189C150.2 166.446 150.533 165.743 150.974 165.11C150.995 165.084 151.016 165.06 151.037 165.037C151.898 164.105 153.834 164.786 153.834 164.786C153.834 164.786 155.268 165.969 154.766 167.475C154.347 168.692 154.398 170.022 154.909 171.204C155.304 172.1 155.877 174.251 155.124 174.968Z" fill="#575A89"/>
<path d="M149.531 172.028L149.137 172.279C149.137 172.279 147.524 171.813 147.559 172.279C147.595 172.745 149.245 172.889 149.245 172.889L149.818 172.459L149.531 172.028Z" fill="#FFB8B8"/>
<path opacity="0.1" d="M151.467 165.288C151.467 165.288 150.428 164.869 150.446 166.513C150.498 167.732 150.672 168.943 150.965 170.128L149.498 172.25L149.962 172.96L152.937 170.522V167.152C152.937 167.152 152.794 165.431 151.467 165.288Z" fill="black"/>
<path opacity="0.1" d="M152.435 166.973V170.343L149.693 172.584L149.513 172.19C149.681 171.856 149.497 171.686 149.535 171.292L150.464 169.949C150.242 169.041 150.084 168.119 149.99 167.189C150.2 166.446 150.533 165.743 150.974 165.11C152.293 165.26 152.435 166.973 152.435 166.973Z" fill="black"/>
<path d="M151.324 165.109C151.324 165.109 150.285 164.69 150.303 166.333C150.355 167.553 150.529 168.764 150.822 169.949L149.355 172.071L149.818 172.781L152.794 170.343V166.973C152.794 166.973 152.651 165.252 151.324 165.109Z" fill="#575A89"/>
<path d="M154.084 161.612C155.004 161.612 155.751 160.866 155.751 159.946C155.751 159.025 155.004 158.279 154.084 158.279C153.164 158.279 152.418 159.025 152.418 159.946C152.418 160.866 153.164 161.612 154.084 161.612Z" fill="#2F2E41"/>
<path d="M155.521 161.326C155.306 161.481 155.056 161.583 154.793 161.623C154.53 161.662 154.261 161.638 154.009 161.553C153.757 161.467 153.529 161.322 153.344 161.13C153.16 160.939 153.024 160.706 152.948 160.45C152.977 160.679 153.053 160.899 153.171 161.097C153.289 161.295 153.447 161.466 153.634 161.6C153.822 161.733 154.035 161.827 154.261 161.874C154.486 161.921 154.719 161.921 154.944 161.873C155.17 161.826 155.383 161.732 155.57 161.598C155.758 161.465 155.916 161.293 156.033 161.095C156.151 160.897 156.227 160.677 156.255 160.449C156.284 160.22 156.265 159.988 156.199 159.767C156.236 160.064 156.193 160.365 156.074 160.639C155.955 160.913 155.764 161.15 155.521 161.326Z" fill="#2F2E41"/>
<path d="M152.723 163.639C153.398 163.639 153.945 163.092 153.945 162.417C153.945 161.742 153.398 161.195 152.723 161.195C152.048 161.195 151.501 161.742 151.501 162.417C151.501 163.092 152.048 163.639 152.723 163.639Z" fill="#2F2E41"/>
<path d="M151.695 162.806C152.294 162.806 152.779 162.427 152.779 161.959C152.779 161.491 152.294 161.112 151.695 161.112C151.097 161.112 150.612 161.491 150.612 161.959C150.612 162.427 151.097 162.806 151.695 162.806Z" fill="#2F2E41"/>
<path d="M151.407 163.191C151.52 163.191 151.612 163.028 151.612 162.827C151.612 162.626 151.52 162.463 151.407 162.463C151.293 162.463 151.201 162.626 151.201 162.827C151.201 163.028 151.293 163.191 151.407 163.191Z" fill="#FFB8B8"/>
</g>
<defs>
<linearGradient id="paint0_linear" x1="184.297" y1="191.305" x2="184.297" y2="166.369" gradientUnits="userSpaceOnUse">
<stop stop-color="#808080" stop-opacity="0.25"/>
<stop offset="0.53514" stop-color="#808080" stop-opacity="0.12"/>
<stop offset="1" stop-color="#808080" stop-opacity="0.1"/>
</linearGradient>
<clipPath id="clip0">
<rect x="60" y="46" width="280" height="147.968" fill="white"/>
</clipPath>
</defs>
</svg>
